<svg width="20" height="20" viewBox="0 0 20 20" fill="none" xmlns="http://www.w3.org/2000/svg">
<mask id="mask0_214_777" style="mask-type:luminance" maskUnits="userSpaceOnUse" x="0" y="0" width="20" height="20">
<path d="M0 1.90735e-06H20V20H0V1.90735e-06Z" fill="white"/>
</mask>
<g mask="url(#mask0_214_777)">
<path d="M12.3681 1.75781H7.73246C7.34453 1.75781 6.9898 1.97699 6.81633 2.32402L6.01676 4.0041C5.84324 4.35113 5.48855 4.57031 5.10059 4.57031H2.34375C1.48078 4.57031 0.78125 5.26988 0.78125 6.13281V16.6797C0.78125 17.5426 1.48078 18.2422 2.34375 18.2422H17.6562C18.5192 18.2422 19.2187 17.5426 19.2187 16.6797V6.13281C19.2187 5.26988 18.5192 4.57031 17.6562 4.57031H15C14.612 4.57031 14.2573 4.35113 14.0838 4.0041L13.2843 2.32402C13.1108 1.97699 12.7561 1.75781 12.3681 1.75781Z" stroke="black" stroke-miterlimit="10" stroke-linecap="square" stroke-linejoin="round"/>
<path d="M5.39062 15.6641V12.1094H8.94531" stroke="black" stroke-miterlimit="10"/>
<path d="M14.7266 6.95313V10.5078H11.1719" stroke="black" stroke-miterlimit="10"/>
<path d="M12.7577 12.8516C12.2223 13.8062 11.2009 14.4531 10.0306 14.4531C8.651 14.4531 7.45084 13.5685 7.04416 12.2517L5.55127 12.7128C5.84053 13.6495 6.43385 14.4907 7.22193 15.0813C8.03764 15.6925 9.00889 16.0156 10.0306 16.0156C12.0823 16.0156 13.8301 14.6907 14.4638 12.8516H12.7577Z" fill="black"/>
<path d="M12.8868 7.53595C12.0711 6.92466 11.0999 6.60157 10.0781 6.60157C8.02646 6.60157 6.27869 7.92653 5.6449 9.76564H7.35103C7.88642 8.81099 8.90791 8.16407 10.0781 8.16407C11.4577 8.16407 12.6579 9.04872 13.0646 10.3655L14.5575 9.90442C14.2682 8.96763 13.6749 8.12649 12.8868 7.53595Z" fill="black"/>
</g>
</svg>
