<svg width="20" height="20" viewBox="0 0 20 20" fill="none" xmlns="http://www.w3.org/2000/svg">
<path d="M12.2266 14.6484H0.585938V2.92969H17.5391V10.1562" stroke="white" stroke-miterlimit="10"/>
<path d="M9.00391 9.96094C9.65111 9.96094 10.1758 9.43627 10.1758 8.78906C10.1758 8.14185 9.65111 7.61719 9.00391 7.61719C8.3567 7.61719 7.83203 8.14185 7.83203 8.78906C7.83203 9.43627 8.3567 9.96094 9.00391 9.96094Z" stroke="white" stroke-miterlimit="10"/>
<path d="M13.4231 10.4297V6.83594H12.0507L10.8788 5.27344H7.246L6.07412 6.83594H4.70166V12.3047H12.1483" stroke="white" stroke-miterlimit="10"/>
<path d="M15.6836 17.0703C17.7439 17.0703 19.4141 15.4001 19.4141 13.3398C19.4141 11.2796 17.7439 9.60938 15.6836 9.60938C13.6233 9.60938 11.9531 11.2796 11.9531 13.3398C11.9531 15.4001 13.6233 17.0703 15.6836 17.0703Z" stroke="white" stroke-miterlimit="10"/>
<path d="M15.6641 11.3672V15.3125" stroke="white" stroke-miterlimit="10"/>
<path d="M17.6562 13.3594H13.7109" stroke="white" stroke-miterlimit="10"/>
</svg>
