<svg width="18" height="19" viewBox="0 0 18 19" fill="none" xmlns="http://www.w3.org/2000/svg">
<g clip-path="url(#clip0_178_1102)">
<path fill-rule="evenodd" clip-rule="evenodd" d="M17.9104 4.99476C17.9104 2.51237 15.8982 0.5 13.4158 0.5C10.7789 0.5 7.13163 0.5 4.49476 0.5C2.01237 0.5 0 2.51237 0 4.99476V13.9158C0 16.3982 2.01237 18.4104 4.49476 18.4104H13.4158C15.8982 18.4104 17.9104 16.3982 17.9104 13.9158V4.99476ZM15.6717 4.99463V13.9158C15.6717 15.1617 14.6617 16.1717 13.4158 16.1717H4.49476C3.24887 16.1717 2.23885 15.1617 2.23885 13.9158V4.99476C2.23885 3.74887 3.24887 2.73885 4.49463 2.73885H13.4158C14.6617 2.73885 15.6717 3.74887 15.6717 4.99463ZM4.80546 10.2467L8.16367 13.6049C8.41809 13.8594 8.7793 13.976 9.1346 13.9183C9.48976 13.8607 9.79549 13.6358 9.95642 13.314L13.3146 6.59757C13.5909 6.04507 13.3666 5.37209 12.814 5.09578C12.2615 4.81946 11.5885 5.04379 11.3122 5.59642L8.6486 10.9237L6.38852 8.66367C5.95169 8.22684 5.2423 8.22684 4.80546 8.66367C4.36863 9.10051 4.36863 9.80989 4.80546 10.2467Z" fill="#04B465"/>
</g>
<defs>
<clipPath id="clip0_178_1102">
<rect width="18" height="18" fill="white" transform="translate(0 0.5)"/>
</clipPath>
</defs>
</svg>
