<svg width="22" height="23" viewBox="0 0 22 23" fill="none" xmlns="http://www.w3.org/2000/svg">
<g clip-path="url(#clip0_148_1145)">
<path d="M21.1406 9.86586V18.2031C21.1406 20.1016 19.6016 21.6406 17.7031 21.6406H4.29688C2.39839 21.6406 0.859375 20.1016 0.859375 18.2031V4.79688C0.859375 2.89839 2.39839 1.35938 4.29688 1.35938H12.6341" stroke="black" stroke-miterlimit="10" stroke-linecap="round" stroke-linejoin="round"/>
<path d="M5.44553 17.0545C5.0659 15.1563 5.66003 13.194 7.02884 11.8252L16.3836 2.47043C17.3904 1.46363 19.0228 1.46363 20.0296 2.47043C21.0364 3.47723 21.0364 5.10962 20.0296 6.11646L10.6749 15.4712C9.30606 16.84 7.34372 17.4341 5.44553 17.0545Z" stroke="black" stroke-miterlimit="10" stroke-linecap="round" stroke-linejoin="round"/>
<path d="M16.1319 5.15291L14.9165 3.9375" stroke="black" stroke-miterlimit="10" stroke-linecap="round" stroke-linejoin="round"/>
</g>
<defs>
<clipPath id="clip0_148_1145">
<rect width="22" height="22" fill="white" transform="translate(0 0.5)"/>
</clipPath>
</defs>
</svg>
