<svg width="16" height="16" viewBox="0 0 16 16" fill="none" xmlns="http://www.w3.org/2000/svg">
<g clip-path="url(#clip0_863_817)">
<path d="M2.5 14.874H13.5C14.5355 14.874 15.375 14.0346 15.375 12.999C15.375 12.6656 15.288 12.3524 15.1353 12.0811L9.63534 2.08112C9.31403 1.5099 8.70209 1.12403 8 1.12403C7.29794 1.12403 6.68597 1.5099 6.36466 2.08112L0.864656 12.0811C0.712062 12.3524 0.625 12.6656 0.625 12.999C0.625 14.0346 1.46447 14.874 2.5 14.874Z" stroke="#E90404" stroke-miterlimit="10" stroke-linecap="round" stroke-linejoin="round"/>
<path d="M8 5.49902V9.24902" stroke="#E90404" stroke-miterlimit="10" stroke-linecap="round" stroke-linejoin="round"/>
<path d="M8.625 11.749C8.625 12.0942 8.34519 12.374 8 12.374C7.65481 12.374 7.375 12.0942 7.375 11.749C7.375 11.4039 7.65481 11.124 8 11.124C8.34519 11.124 8.625 11.4039 8.625 11.749Z" fill="#E90404"/>
<path d="M8.625 11.749C8.625 12.0942 8.34519 12.374 8 12.374C7.65481 12.374 7.375 12.0942 7.375 11.749C7.375 11.4039 7.65481 11.124 8 11.124C8.34519 11.124 8.625 11.4039 8.625 11.749Z" fill="#E90404"/>
</g>
<defs>
<clipPath id="clip0_863_817">
<rect width="16" height="16" fill="white"/>
</clipPath>
</defs>
</svg>
