<svg width="22" height="22" viewBox="0 0 22 22" fill="none" xmlns="http://www.w3.org/2000/svg">
<path d="M18.5625 17.3329V18.6484C18.5625 19.3604 17.9854 19.9375 17.2734 19.9375H1.93359C1.22164 19.9375 0.644531 19.3604 0.644531 18.6484V6.10156C0.644531 5.38961 1.22164 4.8125 1.93359 4.8125H3.24642" stroke="black" stroke-miterlimit="10" stroke-linecap="round" stroke-linejoin="round"/>
<path d="M20.0664 17.1875H4.72656C4.01461 17.1875 3.4375 16.6104 3.4375 15.8984V3.35156C3.4375 2.63961 4.01461 2.0625 4.72656 2.0625H20.0664C20.7784 2.0625 21.3555 2.63961 21.3555 3.35156V15.8984C21.3555 16.6104 20.7784 17.1875 20.0664 17.1875Z" stroke="black" stroke-miterlimit="10" stroke-linecap="round" stroke-linejoin="round"/>
<path d="M3.4375 13.4062L8.25 9.625L11 12.0312L16.5 7.21875L21.3555 10.6562" stroke="black" stroke-miterlimit="10" stroke-linecap="round" stroke-linejoin="round"/>
<path d="M11 7.5625C11.7594 7.5625 12.375 6.94689 12.375 6.1875C12.375 5.42811 11.7594 4.8125 11 4.8125C10.2406 4.8125 9.625 5.42811 9.625 6.1875C9.625 6.94689 10.2406 7.5625 11 7.5625Z" stroke="black" stroke-miterlimit="10" stroke-linecap="round" stroke-linejoin="round"/>
</svg>
