<svg width="24" height="24" viewBox="0 0 24 24" fill="none" xmlns="http://www.w3.org/2000/svg">
<g clip-path="url(#clip0_163_798)">
<path d="M21.6 0.47998H2.39998C1.34398 0.47998 0.47998 1.34398 0.47998 2.39998V21.6C0.47998 22.656 1.34398 23.52 2.39998 23.52H21.6C22.656 23.52 23.52 22.656 23.52 21.6V2.39998C23.52 1.34398 22.656 0.47998 21.6 0.47998Z" fill="white"/>
<path d="M9.74403 5.03998C7.96803 5.66398 6.43203 7.00798 5.56803 8.68798C5.28003 9.26398 5.04003 9.88798 4.94403 10.56C4.60803 12.144 4.84803 13.872 5.56803 15.312C6.04803 16.272 6.72003 17.088 7.58403 17.76C8.35203 18.384 9.26403 18.864 10.272 19.104C11.52 19.44 12.816 19.44 14.016 19.152C15.12 18.912 16.176 18.384 17.04 17.568C17.952 16.752 18.576 15.696 18.912 14.496C19.296 13.248 19.344 11.904 19.104 10.608C16.8 10.608 14.496 10.608 12.192 10.608V13.488H16.176C16.032 14.4 15.456 15.264 14.688 15.744C14.208 16.08 13.632 16.272 13.056 16.368C12.48 16.464 11.856 16.464 11.28 16.368C10.704 16.272 10.128 15.984 9.64803 15.648C8.88003 15.12 8.25603 14.304 7.96803 13.392C7.63203 12.48 7.63203 11.472 7.96803 10.512C8.20803 9.88798 8.54403 9.26398 9.02403 8.78398C9.60003 8.15998 10.368 7.72798 11.232 7.58398C11.952 7.43998 12.672 7.43998 13.392 7.67998C13.968 7.87198 14.544 8.20798 14.976 8.59198C15.408 8.15998 15.888 7.67998 16.32 7.24798C16.56 7.00798 16.8 6.76798 17.04 6.52798C16.368 5.90398 15.552 5.37598 14.688 5.03998C13.104 4.51198 11.328 4.51198 9.74403 5.03998Z" fill="white"/>
<path d="M9.74405 5.03949C11.3281 4.51149 13.1041 4.51149 14.6881 5.08749C15.5521 5.42349 16.3681 5.90349 17.0401 6.57549C16.8001 6.81549 16.5601 7.05549 16.3201 7.29549C15.8881 7.72749 15.4081 8.20749 14.9761 8.63949C14.5441 8.20749 13.9681 7.87149 13.3921 7.72749C12.7201 7.53549 11.9521 7.48749 11.2321 7.63149C10.4161 7.82349 9.64805 8.25549 9.02405 8.83149C8.54405 9.31149 8.16005 9.93549 7.96805 10.5595C7.15205 9.93549 6.38405 9.31149 5.56805 8.68749C6.43205 7.00749 7.96805 5.66349 9.74405 5.03949Z" fill="#EA4335"/>
<path d="M4.94403 10.56C5.08803 9.93599 5.28003 9.31199 5.56803 8.68799C6.38403 9.31199 7.15203 9.93599 7.96803 10.56C7.63203 11.472 7.63203 12.48 7.96803 13.44C7.15203 14.064 6.38403 14.688 5.56803 15.312C4.84803 13.824 4.60803 12.144 4.94403 10.56Z" fill="#FBBC05"/>
<path d="M12.144 10.608H19.056C19.296 11.904 19.248 13.248 18.864 14.496C18.528 15.648 17.904 16.704 16.992 17.568C16.224 16.944 15.456 16.368 14.64 15.744C15.408 15.216 15.936 14.4 16.128 13.488C14.784 13.488 13.44 13.488 12.144 13.488C12.144 12.528 12.144 11.568 12.144 10.608Z" fill="#4285F4"/>
<path d="M5.56805 15.312C6.38405 14.688 7.15205 14.064 7.96805 13.44C8.25605 14.352 8.88005 15.168 9.64805 15.696C10.1281 16.032 10.7041 16.272 11.2801 16.416C11.8561 16.512 12.4321 16.512 13.0561 16.416C13.6321 16.32 14.2081 16.08 14.6881 15.792C15.4561 16.416 16.2241 16.992 17.0401 17.616C16.1761 18.384 15.1681 18.912 14.0161 19.2C12.7681 19.488 11.4721 19.488 10.2721 19.152C9.31205 18.912 8.40005 18.432 7.58405 17.808C6.76805 17.088 6.04805 16.224 5.56805 15.312Z" fill="#34A853"/>
</g>
<defs>
<clipPath id="clip0_163_798">
<rect width="24" height="24" fill="white"/>
</clipPath>
</defs>
</svg>
