<?xml version="1.0" encoding="UTF-8"?>
<svg version="1.1" xmlns="http://www.w3.org/2000/svg" width="512" height="512">
<path d="M0 0 C5.48650301 3.855754 10.44956538 8.28746256 15.45703125 12.73681641 C18.62074752 15.51258291 21.89982613 18.14249889 25.21031189 20.74020386 C28.1015625 23.1796875 28.1015625 23.1796875 30.69313049 25.98001099 C36.94661108 32.56618115 42.25539355 35.15957392 51.38647461 35.44091797 C55.38807707 35.48614863 59.37872124 35.39708043 63.37890625 35.296875 C65.52069565 35.28607995 67.66251995 35.28089774 69.80433655 35.28103638 C75.40736431 35.26977006 81.00773426 35.19734637 86.60998535 35.1071167 C95.59852396 34.96968559 104.58738949 34.91253674 113.57684517 34.88144302 C116.70743049 34.85969782 119.83600181 34.8033046 122.96604919 34.7428894 C124.88482752 34.72578909 126.80361534 34.70971212 128.72241211 34.69482422 C130.01995171 34.65596352 130.01995171 34.65596352 131.34370422 34.61631775 C135.58069725 34.6131134 138.26436098 34.87172621 141.6252594 37.58499146 C145.44711744 41.5895739 145.24110636 44.36480761 145.21508789 49.65869141 C145.21523392 50.42951553 145.21537994 51.20033966 145.2155304 51.99452209 C145.21483239 54.54845979 145.20704525 57.10232501 145.19921875 59.65625 C145.19735417 61.42459066 145.19593046 63.19293183 145.19493103 64.96127319 C145.191109 69.62033509 145.18128138 74.27936592 145.17022705 78.93841553 C145.16000619 83.69071024 145.15543196 88.44300997 145.15039062 93.1953125 C145.13965884 102.52345117 145.12258617 111.85156675 145.1015625 121.1796875 C145.69831787 121.45804443 146.29507324 121.73640137 146.90991211 122.02319336 C150.22051302 123.77013738 152.87024788 126.2831437 155.6640625 128.7421875 C156.92491357 129.83823853 158.18664083 130.93328239 159.44921875 132.02734375 C160.07070801 132.56633301 160.69219727 133.10532227 161.33251953 133.66064453 C163.72036569 135.71104183 166.15571035 137.69901971 168.6015625 139.6796875 C172.82949113 143.11177074 176.97676327 146.6252859 181.1015625 150.1796875 C188.00567423 156.12596013 195.00668076 161.94357891 202.15625 167.59375 C203.14882813 168.38523438 204.14140625 169.17671875 205.1640625 169.9921875 C206.06253906 170.69988281 206.96101563 171.40757812 207.88671875 172.13671875 C210.63128743 174.66830503 211.92979911 176.6664926 212.35456216 180.40855479 C212.35667544 181.63723053 212.35667544 181.63723053 212.35883141 182.890728 C212.3652803 183.839792 212.37172919 184.78885601 212.3783735 185.76667953 C212.3737277 187.32617493 212.3737277 187.32617493 212.36898804 188.91717529 C212.37351915 190.02411373 212.37805026 191.13105217 212.38271868 192.2715342 C212.39541612 195.99454136 212.39373881 199.71740322 212.39208984 203.44042969 C212.39807208 206.10468595 212.40482019 208.76893069 212.41244507 211.43318176 C212.42906657 217.92979714 212.43455529 224.42637623 212.43566982 230.92301109 C212.43662056 236.20930197 212.44073217 241.49558089 212.44707108 246.78186798 C212.4646932 261.78433611 212.47390942 276.78677561 212.47241013 291.78925416 C212.47233022 292.59823876 212.4722503 293.40722337 212.47216797 294.24072266 C212.47208621 295.05070152 212.47200445 295.86068038 212.47192021 296.69520405 C212.47110892 309.79507269 212.49020429 322.89482589 212.5184447 335.99466118 C212.54724271 349.46010104 212.56098093 362.92548476 212.55925715 376.39095616 C212.55859522 383.94461386 212.56399951 391.49815085 212.58561325 399.0517807 C212.60391716 405.48993102 212.60809817 411.92790604 212.5945944 418.36607125 C212.58810828 421.64510304 212.59000335 424.92373329 212.6053009 428.20274544 C212.69803285 449.46873546 211.57721186 469.96996027 196.1015625 486.34375 C181.70235793 499.56176982 167.29288369 503.48862689 148.26924133 503.44711304 C146.64642841 503.45085212 145.02361728 503.45545468 143.40080899 503.46084368 C138.95174094 503.47305726 134.50274817 503.47281515 130.05366719 503.47045493 C125.25118488 503.47004635 120.44872658 503.48108992 115.64625549 503.49057007 C106.24085407 503.50717228 96.83547772 503.51267927 87.43006287 503.51379482 C79.78304984 503.51474571 72.13604507 503.51885806 64.48903465 503.52519608 C42.79916307 503.54280674 21.10931128 503.55203528 -0.5805675 503.55053513 C-1.74950513 503.55045522 -2.91844276 503.5503753 -4.12280273 503.55029297 C-5.29317091 503.55021121 -6.46353908 503.55012945 -7.66937295 503.55004521 C-26.63290477 503.54923247 -45.59635713 503.56836762 -64.55986597 503.5965697 C-84.04047145 503.62531173 -103.5210382 503.63910925 -123.00166541 503.63738215 C-133.93490283 503.63671868 -144.86805696 503.64219204 -155.80127525 503.66373825 C-165.11086144 503.68196742 -174.42032659 503.68628313 -183.72992291 503.6727194 C-188.47687339 503.66619841 -193.22359176 503.66604112 -197.97052002 503.6834259 C-202.32260069 503.69920022 -206.67426607 503.69624872 -211.02633689 503.67885764 C-212.59428826 503.6757973 -214.16227096 503.67938342 -215.73018535 503.69057779 C-232.24476309 503.8006047 -247.63908037 499.73259733 -259.9921875 488.21484375 C-272.61937623 474.73376726 -278.39327954 458.68811224 -278.28611755 440.37490845 C-278.29150309 439.2499954 -278.29688863 438.12508235 -278.30243737 436.96608102 C-278.31664194 433.23069109 -278.3096318 429.49565928 -278.30249023 425.76025391 C-278.30819747 423.06873469 -278.31506326 420.37724041 -278.32328796 417.68572998 C-278.34041265 411.15611381 -278.34132982 404.62659412 -278.33607506 398.09696133 C-278.33202301 392.7902716 -278.33348913 387.48361024 -278.33882332 382.17692184 C-278.33957174 381.41983108 -278.34032016 380.66274032 -278.34109126 379.88270741 C-278.34262281 378.3444622 -278.34416116 376.806217 -278.34570623 375.2679718 C-278.35940641 360.87222618 -278.35400936 346.47653504 -278.34252102 332.08079068 C-278.33257433 318.91323863 -278.34555843 305.74582681 -278.36945521 292.57829638 C-278.39383458 279.04258436 -278.403458 265.5069377 -278.39680248 251.97120416 C-278.39330985 244.37775041 -278.39554616 236.78440469 -278.41305351 229.19096756 C-278.42776024 222.73258726 -278.42843023 216.27439123 -278.4109826 209.8160146 C-278.40246058 206.52197016 -278.40251408 203.22832354 -278.41563416 199.93428421 C-278.42877334 196.36339784 -278.41735836 192.79341183 -278.39964294 189.2225647 C-278.40924795 188.18210735 -278.41885296 187.14165 -278.42874902 186.06966364 C-278.36772949 180.10718349 -277.83981375 176.73680665 -273.8984375 172.1796875 C-271.55859375 170.01171875 -271.55859375 170.01171875 -268.9609375 167.9921875 C-267.99414062 167.22648438 -267.02734375 166.46078125 -266.03125 165.671875 C-265.52110352 165.26936523 -265.01095703 164.86685547 -264.48535156 164.45214844 C-261.71848501 162.23354714 -259.03214746 159.9206722 -256.3359375 157.6171875 C-251.78648029 153.74625732 -247.17006726 149.98005533 -242.48828125 146.26953125 C-239.43761697 143.80783383 -236.44700915 141.28152746 -233.4609375 138.7421875 C-217.90653283 125.51841772 -217.90653283 125.51841772 -212.8984375 122.1796875 C-212.60849593 119.60872517 -212.51273695 117.27651849 -212.54541016 114.70410156 C-212.54324997 113.93316162 -212.54108978 113.16222168 -212.53886414 112.36791992 C-212.53577186 110.69059452 -212.53939864 109.0132466 -212.54887772 107.33594513 C-212.56258365 104.67909668 -212.55619735 102.02299801 -212.54403687 99.3661499 C-212.51303301 91.81143367 -212.51791802 84.25688876 -212.53808594 76.70214844 C-212.54901651 72.08309755 -212.53578158 67.46460752 -212.50819016 62.84563446 C-212.50275439 61.08663023 -212.50680131 59.32756974 -212.52058792 57.56861115 C-212.5396823 55.10273918 -212.52820953 52.6386931 -212.51025391 50.17285156 C-212.53026207 49.08783356 -212.53026207 49.08783356 -212.55067444 47.980896 C-212.45924376 42.31664988 -210.76924726 40.01483191 -206.8984375 36.1796875 C-203.48719458 34.47406604 -199.58509813 35.0819887 -195.83398438 35.1171875 C-193.8848889 35.12663575 -191.93579213 35.13581911 -189.98669434 35.14477539 C-188.94941696 35.15106964 -187.91213959 35.15736389 -186.84342957 35.16384888 C-181.35395829 35.19079839 -175.86451891 35.18094107 -170.375 35.17578125 C-163.38736231 35.16957927 -156.40053218 35.1747784 -149.41308594 35.23095703 C-143.76931199 35.27535656 -138.12702609 35.27569514 -132.48316956 35.24682617 C-130.3366784 35.243754 -128.190101 35.25656272 -126.04380798 35.28588867 C-112.43638542 35.89046658 -112.43638542 35.89046658 -100.80273438 29.85546875 C-99.47965893 28.31520518 -98.17689167 26.75718407 -96.8984375 25.1796875 C-95.32514999 23.85058259 -93.72362384 22.55358178 -92.0859375 21.3046875 C-88.72687544 18.66467466 -85.4563689 15.9539907 -82.2277832 13.15820312 C-58.09919884 -7.65157967 -29.29553353 -18.01018288 0 0 Z M-58.8984375 26.1796875 C-60.75007399 27.64123204 -62.60423934 29.09957855 -64.4609375 30.5546875 C-65.96080311 31.73722994 -67.4474216 32.93769059 -68.8984375 34.1796875 C-68.8984375 34.5096875 -68.8984375 34.8396875 -68.8984375 35.1796875 C-45.1384375 35.1796875 -21.3784375 35.1796875 3.1015625 35.1796875 C-6.93346866 25.14465634 -17.60576821 15.24301735 -32.4609375 14.8671875 C-43.38679767 15.00010551 -50.78079956 19.25745515 -58.8984375 26.1796875 Z M-187.8984375 59.1796875 C-188.2284375 86.4871875 -188.5584375 113.7946875 -188.8984375 141.9296875 C-189.04410156 150.53901367 -189.18976563 159.14833984 -189.33984375 168.01855469 C-189.39336806 175.76352924 -189.39336806 175.76352924 -189.42553711 183.50860596 C-189.44039723 186.94893834 -189.50012164 190.38528716 -189.58764648 193.82452393 C-191.17377265 213.56458678 -191.17377265 213.56458678 -184.40507507 231.04437256 C-181.14917872 233.83379988 -177.72999813 235.74112319 -173.77598667 237.36525345 C-171.1887263 238.48754253 -169.10908533 240.09515629 -166.91796875 241.8515625 C-165.51586228 242.87792839 -164.11352103 243.90397363 -162.7109375 244.9296875 C-155.77469506 250.01794506 -148.9149928 255.19860778 -142.0859375 260.4296875 C-135.89046867 265.17467655 -129.66036517 269.83437781 -123.27514648 274.32006836 C-117.96385358 278.07710108 -112.81035906 282.03347643 -107.6484375 285.9921875 C-100.42612261 291.53032881 -93.13374196 296.94060491 -85.7277832 302.22998047 C-78.7836795 307.21173733 -71.99983891 312.39635179 -65.24023438 317.625 C-52.63784774 327.32519767 -42.52086558 334.33822366 -25.8984375 332.1796875 C-18.22689372 330.09614783 -12.2485924 326.79140001 -6.0234375 321.9296875 C-4.82086304 321.0181189 -4.82086304 321.0181189 -3.59399414 320.08813477 C-1.01858855 318.13164245 1.54177167 316.15655091 4.1015625 314.1796875 C6.73581745 312.16439173 9.37289114 310.15282784 12.01025391 308.14160156 C13.78589225 306.78708518 15.5602989 305.43095271 17.33349609 304.07324219 C23.57440895 299.30477492 29.90413005 294.68012462 36.29321289 290.11303711 C42.14777712 285.91073662 47.88378531 281.56581352 53.6015625 277.1796875 C60.74720487 271.69824132 67.96665991 266.35009024 75.29296875 261.11328125 C81.95742211 256.32944965 88.47874387 251.36704811 94.96875 246.34960938 C96.16371094 245.43018555 96.16371094 245.43018555 97.3828125 244.4921875 C98.58679184 243.50329781 98.58679184 243.50329781 99.81509399 242.49443054 C102.26533623 240.61942095 104.69669073 239.44660483 107.53573608 238.25141907 C113.20174589 235.55675437 117.71445317 232.5696303 121.1015625 227.1796875 C124.30401336 215.84823508 123.25665924 203.47046755 122.92460632 191.82007599 C122.82137081 187.61046975 122.81723586 183.40290827 122.80444336 179.1920166 C122.71033686 166.91592294 122.45902985 154.64144066 122.2265625 142.3671875 C121.8553125 114.9153125 121.4840625 87.4634375 121.1015625 59.1796875 C19.1315625 59.1796875 -82.8384375 59.1796875 -187.8984375 59.1796875 Z M145.1015625 153.1796875 C145.1015625 171.3296875 145.1015625 189.4796875 145.1015625 208.1796875 C149.92878944 205.42127211 153.82759428 202.99518061 158.1015625 199.6171875 C163.14015675 195.67015094 168.24523592 191.82968012 173.4140625 188.0546875 C174.07857422 187.5692749 174.74308594 187.0838623 175.42773438 186.58374023 C176.98477374 185.44781672 178.54302815 184.31355896 180.1015625 183.1796875 C178.59435102 179.41586888 176.45239319 177.59505268 173.2890625 175.1171875 C172.30679687 174.33601563 171.32453125 173.55484375 170.3125 172.75 C169.79010742 172.33524414 169.26771484 171.92048828 168.72949219 171.49316406 C165.90876616 169.21729333 163.16737897 166.84872731 160.4140625 164.4921875 C153.32732411 157.35582604 153.32732411 157.35582604 145.1015625 153.1796875 Z M-231.05053711 169.09082031 C-235.324693 172.73094355 -239.70778522 176.21036516 -244.16796875 179.62109375 C-244.73902344 180.13542969 -245.31007812 180.64976562 -245.8984375 181.1796875 C-245.8984375 181.8396875 -245.8984375 182.4996875 -245.8984375 183.1796875 C-244.32181725 184.62700026 -244.32181725 184.62700026 -242.234375 186.0859375 C-241.05464111 186.94807861 -241.05464111 186.94807861 -239.85107422 187.82763672 C-238.57514404 188.74440186 -238.57514404 188.74440186 -237.2734375 189.6796875 C-236.41637207 190.30246582 -235.55930664 190.92524414 -234.67626953 191.56689453 C-232.08831061 193.44435775 -229.49381669 195.312501 -226.8984375 197.1796875 C-225.45028747 198.22884463 -224.00235158 199.27829744 -222.5546875 200.328125 C-221.29476593 201.23766538 -220.03438176 202.14656546 -218.7734375 203.0546875 C-218.18868652 203.47685547 -217.60393555 203.89902344 -217.00146484 204.33398438 C-214.66725173 206.3234534 -214.66725173 206.3234534 -211.8984375 207.1796875 C-211.8984375 189.6896875 -211.8984375 172.1996875 -211.8984375 154.1796875 C-217.33254729 154.1796875 -226.65330112 165.33494267 -231.05053711 169.09082031 Z M-253.8984375 207.1796875 C-253.94410481 237.3122328 -253.97947858 267.44477691 -254.00056816 297.5773492 C-254.00306944 301.13823612 -254.0056581 304.69912296 -254.00830078 308.26000977 C-254.0088254 308.96889067 -254.00935002 309.67777157 -254.00989054 310.40813371 C-254.01858299 321.87233111 -254.03434655 333.33650837 -254.05274309 344.80069385 C-254.07147446 356.57208488 -254.08256106 368.3434654 -254.08661449 380.11487073 C-254.0891077 386.72327334 -254.09533282 393.33163855 -254.10989761 399.94002724 C-254.12350367 406.16402159 -254.127654 412.38795164 -254.12465286 418.61195946 C-254.12520167 420.89233627 -254.12916102 423.1727153 -254.13684845 425.45307922 C-254.14685698 428.57595998 -254.14438486 431.69860066 -254.13894653 434.82148743 C-254.14477222 435.71549187 -254.1505979 436.6094963 -254.15660012 437.53059179 C-254.10856566 447.79526163 -252.61508582 456.53457209 -246.8984375 465.1796875 C-246.3209375 466.0665625 -245.7434375 466.9534375 -245.1484375 467.8671875 C-237.52646303 475.70088349 -228.65223535 479.26757277 -217.82466316 479.56000423 C-214.98682666 479.58870751 -212.14995425 479.57955962 -209.31204224 479.56736755 C-207.72818718 479.57154436 -206.14433512 479.57702377 -204.56048858 479.58368737 C-200.22379512 479.59811532 -195.88729214 479.59390555 -191.55058837 479.58652055 C-186.86744777 479.58178461 -182.18434812 479.59430252 -177.5012207 479.60453796 C-168.33256818 479.62172303 -159.16398419 479.62256656 -149.99531974 479.61732506 C-142.54186457 479.61328152 -135.08842964 479.61472911 -127.63497543 479.62007332 C-126.57363208 479.62082174 -125.51228872 479.62157016 -124.41878345 479.62234126 C-122.26257229 479.62387276 -120.10636114 479.62541111 -117.95015 479.62695623 C-97.73522307 479.64068026 -77.52033486 479.6352443 -57.30540882 479.62377102 C-38.81910804 479.61383915 -20.33290735 479.6267787 -1.84662201 479.65070521 C17.14358485 479.67509841 36.13374508 479.68470351 55.12396729 479.67805248 C65.78213609 479.67456071 76.44022791 479.67678961 87.09838486 479.69430351 C96.1715898 479.70902824 105.24466357 479.70965736 114.31786595 479.6922326 C118.94508227 479.68372243 123.57206427 479.6815735 128.19926834 479.69688416 C132.43957386 479.71074067 136.67944453 479.70595581 140.91972496 479.68664492 C142.44924996 479.68288755 143.97880988 479.6857993 145.50830375 479.69625657 C157.61762342 479.77312656 167.56930345 478.12598269 177.09375 470.171875 C185.18333511 462.14524386 188.07221968 452.82475378 188.22461033 441.58580112 C188.22878251 439.81205262 188.22749747 438.03828594 188.22181702 436.26454163 C188.22267144 435.28259164 188.22352587 434.30064165 188.22440618 433.2889356 C188.22604964 430.00779056 188.22055819 426.72669695 188.21508789 423.44555664 C188.21480575 421.08987428 188.21496428 418.73419183 188.2155304 416.37850952 C188.21581731 409.98862425 188.20993758 403.59875775 188.20295644 397.20887685 C188.19733883 391.2059953 188.19633306 385.20311373 188.19530457 379.20023005 C188.19311805 367.31341481 188.1864688 355.42660644 188.17700195 343.53979492 C188.16781749 331.99552444 188.16074171 320.45125582 188.15649414 308.90698242 C188.15623142 308.19492954 188.15596869 307.48287666 188.15569801 306.74924643 C188.15439293 303.17694785 188.15312924 299.60464926 188.15188611 296.03235066 C188.14152595 266.41479171 188.12384397 236.79723993 188.1015625 207.1796875 C186.69042337 208.11440548 185.28010388 209.05036091 183.87011719 209.98681641 C183.08465515 210.50788971 182.29919312 211.02896301 181.4899292 211.56582642 C177.700915 214.12612948 174.02488085 216.83207321 170.3515625 219.5546875 C169.54009766 220.15410156 168.72863281 220.75351563 167.89257812 221.37109375 C160.85651139 226.58498583 153.89468633 231.89406924 146.94042969 237.21630859 C140.44119772 242.18229633 133.87608064 247.05021775 127.27661133 251.88183594 C121.22376737 256.32449852 115.24908291 260.86347387 109.2890625 265.4296875 C103.09279165 270.17538628 96.86092143 274.83426849 90.47607422 279.32226562 C84.25756845 283.72288702 78.23789463 288.38316475 72.19140625 293.015625 C65.61025164 298.05049114 58.96365775 302.98625614 52.27783203 307.88085938 C46.22466264 312.32396892 40.24966458 316.86336892 34.2890625 321.4296875 C27.39779201 326.70408528 20.46813836 331.89347576 13.359375 336.87109375 C11.06995611 338.49345174 8.82535261 340.13466078 6.59375 341.83203125 C-7.66345405 352.57778224 -23.47980477 358.07352557 -41.4375 355.71484375 C-58.51870612 352.77520644 -70.43405666 343.47360296 -83.8984375 333.1796875 C-84.78370117 332.50454102 -85.66896484 331.82939453 -86.58105469 331.13378906 C-90.193193 328.3789004 -93.80484567 325.6234051 -97.41186523 322.86181641 C-102.18410904 319.21565741 -106.98518217 315.63328241 -111.8984375 312.1796875 C-118.67481269 307.41647995 -125.23424186 302.38062792 -131.80859375 297.34375 C-137.62696272 292.89244767 -143.48741611 288.50706689 -149.3984375 284.1796875 C-156.23233558 279.17668248 -162.98782223 274.08053908 -169.7109375 268.9296875 C-175.37901945 264.58852647 -181.05724232 260.28554413 -186.8984375 256.1796875 C-192.73963941 252.07382614 -198.41773564 247.77070063 -204.0859375 243.4296875 C-213.13866719 236.49744631 -222.27790852 229.69591804 -231.4765625 222.95898438 C-234.08123518 221.04539017 -236.67798514 219.12139173 -239.2734375 217.1953125 C-240.15177246 216.54449707 -241.03010742 215.89368164 -241.93505859 215.22314453 C-243.63197265 213.96542423 -245.32765637 212.70604188 -247.02197266 211.44482422 C-247.77784668 210.88553223 -248.5337207 210.32624023 -249.3125 209.75 C-249.9823291 209.25258301 -250.6521582 208.75516602 -251.34228516 208.24267578 C-252.7219679 207.08567881 -252.7219679 207.08567881 -253.8984375 207.1796875 Z " fill="#000000" transform="translate(288.8984375,8.8203125)"/>
<path d="M0 0 C1.25757614 -0.00571014 2.51515228 -0.01142029 3.81083679 -0.01730347 C5.207199 -0.01854881 6.60356132 -0.01967391 7.99992371 -0.02069092 C9.46844609 -0.02531954 10.93696728 -0.03034427 12.40548706 -0.03573608 C16.39732005 -0.048858 20.38913622 -0.05530466 24.38098741 -0.05974674 C26.87510482 -0.06267787 29.36921764 -0.06678276 31.86333275 -0.07125092 C39.66734286 -0.08492544 47.47134248 -0.09459226 55.27536374 -0.09845281 C64.28301047 -0.10293328 73.29050543 -0.12048083 82.29810601 -0.1494534 C89.26126314 -0.17107241 96.22437756 -0.18115721 103.18756789 -0.18249393 C107.34609065 -0.18354182 111.50447073 -0.18944622 115.66295815 -0.20731354 C119.57573082 -0.223798 123.48825363 -0.22594799 127.40104866 -0.21717453 C128.83532633 -0.21640435 130.26961745 -0.22074447 131.70386124 -0.23063278 C133.66557033 -0.24336202 135.62737991 -0.23568022 137.58911133 -0.22705078 C138.6858357 -0.22851734 139.78256006 -0.2299839 140.9125185 -0.2314949 C145.26789315 0.29573616 148.63626867 1.83818848 151.79753113 4.89044189 C154.20497078 9.45190649 154.33122448 12.98646406 152.86003113 17.89044189 C150.78719648 21.48335529 149.66817557 22.39302423 145.98503113 24.14044189 C142.97868347 24.51796532 142.97868347 24.51796532 139.57096863 24.52139282 C137.62782776 24.53408203 137.62782776 24.53408203 135.64543152 24.54702759 C134.21696346 24.54119515 132.78849664 24.53505067 131.36003113 24.52862549 C129.85018026 24.53269221 128.34033237 24.53803465 126.83049011 24.54455566 C122.73546542 24.55822322 118.64066766 24.55293298 114.54563904 24.54341841 C110.25850313 24.5358189 105.97138655 24.54286823 101.68424988 24.5475769 C94.48499567 24.55303361 87.28583381 24.54584509 80.08659363 24.53155518 C71.76533609 24.5152288 63.44429907 24.52051737 55.12304688 24.53703439 C47.97641107 24.5506517 40.82984161 24.55256773 33.68319702 24.54471838 C29.41577032 24.54004321 25.14844725 24.53941273 20.88102722 24.54932785 C16.8688882 24.55799881 12.85703328 24.55197338 8.84492493 24.53464508 C7.37314831 24.53068091 5.90134775 24.53181312 4.42958069 24.53843307 C2.41942707 24.54664053 0.40922115 24.53451947 -1.60090637 24.52139282 C-3.28772522 24.51969621 -3.28772522 24.51969621 -5.00862122 24.51796532 C-8.4243138 24.08903823 -10.27206252 23.19219503 -13.01496887 21.14044189 C-15.40095055 17.56146938 -15.8007639 15.42454135 -16.01496887 11.14044189 C-14.56832905 6.57210562 -13.26196209 3.52937558 -9.01496887 1.14044189 C-5.77132715 0.05922799 -3.41299695 0.00926668 0 0 Z " fill="#000000" transform="translate(187.0149688720703,218.85955810546875)"/>
<path d="M0 0 C0.70427124 -0.00817749 1.40854248 -0.01635498 2.13415527 -0.02478027 C4.46922962 -0.04963077 6.80424318 -0.06614945 9.1394043 -0.08056641 C9.93670645 -0.08589008 10.7340086 -0.09121376 11.55547142 -0.09669876 C15.7757407 -0.12342911 19.99598041 -0.14280416 24.21630859 -0.15722656 C28.57456527 -0.17387275 32.9320655 -0.21864969 37.2900362 -0.26959801 C40.64180872 -0.30326106 43.99340148 -0.31480288 47.34532738 -0.32045364 C48.95171069 -0.327169 50.55808205 -0.34239868 52.16430092 -0.36634445 C54.41484759 -0.39798102 56.66335167 -0.39803643 58.9140625 -0.390625 C60.19376419 -0.39871185 61.47346588 -0.40679871 62.79194641 -0.41513062 C67.03403598 0.3526759 68.46302126 1.9021096 71.15112305 5.19287109 C73.58563714 9.39794088 73.31697705 12.52945509 72.15112305 17.19287109 C69.65441031 21.20544513 67.60343414 22.78230153 63.15112305 24.19287109 C60.00868225 24.4535675 60.00868225 24.4535675 56.43652344 24.4675293 C55.78218826 24.47264023 55.12785309 24.47775116 54.45368958 24.48301697 C52.30195841 24.49685741 50.15054954 24.4959605 47.9987793 24.49365234 C46.49572125 24.49754226 44.9926643 24.50187754 43.48960876 24.50663757 C40.34329663 24.51408778 37.19709674 24.51381719 34.05078125 24.50854492 C30.02805782 24.50275098 26.00579493 24.51968491 21.98314762 24.5428896 C18.88009476 24.55765407 15.77715213 24.55849498 12.67407036 24.55537987 C11.1913709 24.55589169 9.70866505 24.56110326 8.22599983 24.57119179 C6.14873843 24.58359257 4.07236543 24.57674397 1.99511719 24.56518555 C0.22570518 24.56612968 0.22570518 24.56612968 -1.57945251 24.5670929 C-6.0650919 24.05366184 -9.45711445 22.5846336 -12.66137695 19.38037109 C-14.78232992 15.47335248 -15.11385409 12.39731263 -14.16137695 8.06787109 C-10.98374713 1.10734863 -7.2025758 0.07251782 0 0 Z " fill="#000000" transform="translate(185.848876953125,160.80712890625)"/>
</svg>
