<svg width="161" height="161" viewBox="0 0 161 161" fill="none" xmlns="http://www.w3.org/2000/svg">
<circle cx="80.5" cy="80.5" r="80.5" fill="white"/>
<g clip-path="url(#clip0_3513_1706)">
<g clip-path="url(#clip1_3513_1706)">
<path d="M59.5344 80.1646C59.4974 80.207 59.4087 80.2988 59.2756 80.4471C58.9282 80.8143 58.2776 81.4852 57.5088 82.2832C57.2353 82.5657 56.947 82.8553 56.6587 83.1589C55.2098 84.649 53.5835 86.3227 52.7259 87.2196C52.7703 87.149 53.6648 85.8708 53.8792 84.6702C53.9309 84.3877 53.7017 84.1264 53.3986 84.1264C53.066 84.1264 52.5929 84.1547 52.0384 84.2394C50.0055 84.5713 46.8563 85.7931 45.2965 90.0798C44.89 91.1814 44.5943 92.4809 44.4464 94.0204C44.2764 92.9399 44.1951 91.9512 44.1803 91.0402C44.0768 83.2437 49.2958 81.5135 51.4544 81.1321C51.8388 81.0615 51.9867 80.6095 51.7058 80.3412C51.5727 80.2211 51.4396 80.094 51.3066 79.981C50.9591 79.6773 51.2031 79.1336 51.6688 79.1689C52.9477 79.2677 54.6775 79.4796 56.1856 79.6844C57.8858 79.9175 59.32 80.1293 59.5344 80.1646Z" fill="#070257"/>
</g>
<g clip-path="url(#clip2_3513_1706)">
<path d="M59.5344 59.9178C59.4974 59.8754 59.4087 59.7836 59.2757 59.6353C58.9282 59.2681 58.2777 58.5972 57.5089 57.7992C57.2354 57.5167 56.9471 57.2271 56.6588 56.9235C55.2098 55.4334 53.5835 53.7597 52.726 52.8628C52.7703 52.9334 53.6205 54.1551 53.8644 55.3345C53.931 55.6593 53.65 55.963 53.3026 55.956C52.9773 55.9489 52.5412 55.9206 52.0385 55.843C50.0056 55.511 46.8564 54.2893 45.2966 50.0026C44.89 48.901 44.5943 47.6015 44.4465 46.062C44.2764 47.1425 44.1951 48.1312 44.1803 49.0422C44.0768 56.6975 49.1111 58.5054 51.3288 58.9291C51.7724 59.0138 51.9202 59.5435 51.5949 59.8401C51.5506 59.8825 51.4988 59.9248 51.4545 59.9672C51.0701 60.3133 51.3584 60.9347 51.8833 60.8853C53.14 60.7793 54.7589 60.5816 56.193 60.3909C57.8859 60.172 59.32 59.9531 59.5344 59.9178Z" fill="#070257"/>
</g>
<g clip-path="url(#clip3_3513_1706)">
<path d="M104.11 80.1646C104.147 80.207 104.236 80.2988 104.369 80.4471C104.716 80.8144 105.367 81.4853 106.136 82.2833C106.409 82.5657 106.697 82.8553 106.986 83.159C108.435 84.6491 110.061 86.3228 110.919 87.2196C110.874 87.1561 110.039 85.9485 109.787 84.7903C109.714 84.4443 110.009 84.1194 110.379 84.1335C110.697 84.1406 111.118 84.1688 111.606 84.2465C113.639 84.5784 116.788 85.8002 118.348 90.0868C118.754 91.1885 119.05 92.4879 119.198 94.0275C119.368 92.947 119.449 91.9583 119.464 91.0473C119.568 83.4556 114.622 81.6194 112.375 81.1745C111.909 81.0827 111.754 80.5248 112.094 80.207C112.101 80.2 112.116 80.1929 112.123 80.1788C112.53 79.8045 112.227 79.1548 111.665 79.2042C110.423 79.3101 108.849 79.5079 107.459 79.6915C105.759 79.9175 104.332 80.1293 104.11 80.1646Z" fill="#070257"/>
</g>
<g clip-path="url(#clip4_3513_1706)">
<path d="M104.11 59.9176C104.147 59.8753 104.236 59.7835 104.369 59.6352C104.716 59.2679 105.367 58.597 106.136 57.799C106.409 57.5165 106.697 57.227 106.986 56.9233C108.435 55.4332 110.061 53.7595 110.919 52.8626C110.874 52.9262 110.039 54.1338 109.787 55.292C109.714 55.638 110.009 55.9629 110.379 55.9488C110.697 55.9417 111.118 55.9134 111.606 55.8358C113.639 55.5038 116.788 54.2821 118.348 49.9954C118.754 48.8938 119.05 47.5943 119.198 46.0548C119.368 47.1353 119.449 48.124 119.464 49.035C119.568 56.6267 114.622 58.4629 112.375 58.9078C111.909 58.9996 111.754 59.5575 112.094 59.8753C112.101 59.8823 112.116 59.8894 112.123 59.9035C112.53 60.2778 112.227 60.9275 111.665 60.8781C110.423 60.7721 108.849 60.5744 107.459 60.3908C105.759 60.1719 104.332 59.9529 104.11 59.9176Z" fill="#070257"/>
</g>
<g clip-path="url(#clip5_3513_1706)">
<mask id="path-6-inside-1_3513_1706" fill="white">
<path d="M72.3981 60.9935L66.6912 64.2321C60.7847 67.5869 60.7847 75.974 66.6912 79.3288L77.5433 85.4866"/>
</mask>
<path d="M66.6912 64.2321L66.0903 63.1742L66.0907 63.174L66.6912 64.2321ZM66.6912 79.3288L66.0908 80.387L66.0903 80.3868L66.6912 79.3288ZM72.3981 60.9935L72.9986 62.0517L67.2917 65.2903L66.6912 64.2321L66.0907 63.174L71.7976 59.9353L72.3981 60.9935ZM66.6912 64.2321L67.2921 65.2901C62.2066 68.1786 62.2066 75.3824 67.2921 78.2709L66.6912 79.3288L66.0903 80.3868C59.3627 76.5656 59.3627 66.9953 66.0903 63.1742L66.6912 64.2321ZM66.6912 79.3288L67.2917 78.2706L78.1437 84.4284L77.5433 85.4866L76.9428 86.5448L66.0908 80.387L66.6912 79.3288Z" fill="#070257" mask="url(#path-6-inside-1_3513_1706)"/>
</g>
<g clip-path="url(#clip6_3513_1706)">
<mask id="path-8-inside-2_3513_1706" fill="white">
<path d="M86.7268 52.2839L118.962 34.5029C125.029 31.1553 132.622 35.3434 132.622 42.0457V100.794C132.622 107.482 125.037 111.67 118.962 108.322L81.4402 87.6213L71.5498 82.1652"/>
</mask>
<path d="M118.962 34.5029L119.549 35.5682L119.549 35.5682L118.962 34.5029ZM118.962 108.322L118.374 109.388L118.375 109.388L118.962 108.322ZM81.4402 87.6213L82.028 86.556L82.0279 86.5559L81.4402 87.6213ZM86.7268 52.2839L87.3144 53.3492L119.549 35.5682L118.962 34.5029L118.374 33.4375L86.1391 51.2185L86.7268 52.2839ZM118.962 34.5029L119.549 35.5682C124.888 32.623 131.405 36.3611 131.405 42.0457H132.622H133.838C133.838 34.3256 125.171 29.6877 118.374 33.4375L118.962 34.5029ZM132.622 42.0457H131.405V100.794H132.622H133.838V42.0457H132.622ZM132.622 100.794H131.405C131.405 106.462 124.897 110.203 119.549 107.257L118.962 108.322L118.375 109.388C125.177 113.136 133.838 108.501 133.838 100.794H132.622ZM118.962 108.322L119.549 107.257L82.028 86.556L81.4402 87.6213L80.8525 88.6866L118.374 109.388L118.962 108.322ZM81.4402 87.6213L82.0279 86.5559L72.1375 81.0999L71.5498 82.1652L70.9621 83.2306L80.8525 88.6866L81.4402 87.6213Z" fill="#070257" mask="url(#path-8-inside-2_3513_1706)"/>
</g>
<path d="M76.1816 89.3524L44.7638 106.683C38.8498 109.945 31.45 105.863 31.45 99.3311V42.0719C31.45 35.5536 38.8424 31.4718 44.7638 34.7344L81.3341 54.9107L96.6808 63.3711C102.587 66.6338 102.587 74.7904 96.6808 78.0531L85.8287 84.0417" stroke="#070257" stroke-width="1.21669" stroke-miterlimit="10"/>
<g clip-path="url(#clip7_3513_1706)">
<path d="M122.805 43.4488C123.474 43.4488 124.017 42.9303 124.017 42.2906C124.017 41.651 123.474 41.1324 122.805 41.1324C122.135 41.1324 121.593 41.651 121.593 42.2906C121.593 42.9303 122.135 43.4488 122.805 43.4488Z" stroke="#070257" stroke-width="0.0678058" stroke-miterlimit="10"/>
<path d="M122.806 42.8204C123.112 42.8204 123.36 42.5833 123.36 42.2908C123.36 41.9982 123.112 41.7611 122.806 41.7611C122.499 41.7611 122.251 41.9982 122.251 42.2908C122.251 42.5833 122.499 42.8204 122.806 42.8204Z" stroke="#070257" stroke-width="0.0292071" stroke-miterlimit="10"/>
<path d="M122.806 42.6651C123.023 42.6651 123.198 42.4975 123.198 42.2908C123.198 42.0841 123.023 41.9165 122.806 41.9165C122.59 41.9165 122.415 42.0841 122.415 42.2908C122.415 42.4975 122.59 42.6651 122.806 42.6651Z" stroke="#070257" stroke-width="0.0292071" stroke-miterlimit="10"/>
<path d="M125.668 44.7201C126.248 44.7201 126.718 44.2711 126.718 43.7173C126.718 43.1635 126.248 42.7145 125.668 42.7145C125.089 42.7145 124.619 43.1635 124.619 43.7173C124.619 44.2711 125.089 44.7201 125.668 44.7201Z" stroke="#070257" stroke-width="0.0584657" stroke-miterlimit="10"/>
<path d="M125.667 44.8753C126.337 44.8753 126.88 44.3568 126.88 43.7171C126.88 43.0775 126.337 42.559 125.667 42.559C124.998 42.559 124.455 43.0775 124.455 43.7171C124.455 44.3568 124.998 44.8753 125.667 44.8753Z" stroke="#070257" stroke-width="0.0678058" stroke-miterlimit="10"/>
<path d="M125.667 44.3175C126.014 44.3175 126.295 44.0487 126.295 43.7172C126.295 43.3857 126.014 43.1169 125.667 43.1169C125.32 43.1169 125.038 43.3857 125.038 43.7172C125.038 44.0487 125.32 44.3175 125.667 44.3175Z" stroke="#070257" stroke-width="0.0584657" stroke-miterlimit="10"/>
<path d="M125.666 43.9926C125.825 43.9926 125.954 43.8693 125.954 43.7172C125.954 43.5651 125.825 43.4418 125.666 43.4418C125.506 43.4418 125.377 43.5651 125.377 43.7172C125.377 43.8693 125.506 43.9926 125.666 43.9926Z" stroke="#070257" stroke-width="0.0292071" stroke-miterlimit="10"/>
<path d="M125.668 41.8671C126.248 41.8671 126.718 41.4181 126.718 40.8643C126.718 40.3104 126.248 39.8615 125.668 39.8615C125.089 39.8615 124.619 40.3104 124.619 40.8643C124.619 41.4181 125.089 41.8671 125.668 41.8671Z" stroke="#070257" stroke-width="0.0584657" stroke-miterlimit="10"/>
<path d="M125.666 42.086C126.376 42.086 126.952 41.5359 126.952 40.8572C126.952 40.1786 126.376 39.6284 125.666 39.6284C124.955 39.6284 124.379 40.1786 124.379 40.8572C124.379 41.5359 124.955 42.086 125.666 42.086Z" stroke="#070257" stroke-width="0.0584657" stroke-miterlimit="10"/>
<path d="M125.667 41.5704C126.076 41.5704 126.407 41.2542 126.407 40.8642C126.407 40.4741 126.076 40.158 125.667 40.158C125.259 40.158 124.928 40.4741 124.928 40.8642C124.928 41.2542 125.259 41.5704 125.667 41.5704Z" stroke="#070257" stroke-width="0.0683734" stroke-miterlimit="10"/>
<path d="M125.668 41.0759C125.79 41.0759 125.89 40.9811 125.89 40.8641C125.89 40.7471 125.79 40.6522 125.668 40.6522C125.545 40.6522 125.446 40.7471 125.446 40.8641C125.446 40.9811 125.545 41.0759 125.668 41.0759Z" stroke="#070257" stroke-width="0.0438622" stroke-miterlimit="10"/>
<path d="M122.806 40.4334C122.896 40.4334 122.969 40.3639 122.969 40.278C122.969 40.1922 122.896 40.1227 122.806 40.1227C122.716 40.1227 122.644 40.1922 122.644 40.278C122.644 40.3639 122.716 40.4334 122.806 40.4334Z" stroke="#070257" stroke-width="0.0584657" stroke-miterlimit="10"/>
<path d="M122.806 40.6524C123.023 40.6524 123.198 40.4848 123.198 40.2781C123.198 40.0714 123.023 39.9038 122.806 39.9038C122.59 39.9038 122.415 40.0714 122.415 40.2781C122.415 40.4848 122.59 40.6524 122.806 40.6524Z" stroke="#070257" stroke-width="0.0584657" stroke-miterlimit="10"/>
<path d="M122.806 40.8076C123.112 40.8076 123.36 40.5705 123.36 40.2779C123.36 39.9854 123.112 39.7483 122.806 39.7483C122.499 39.7483 122.251 39.9854 122.251 40.2779C122.251 40.5705 122.499 40.8076 122.806 40.8076Z" stroke="#070257" stroke-width="0.0584657" stroke-miterlimit="10"/>
<path d="M122.806 44.7766C123.083 44.7766 123.308 44.5616 123.308 44.2964C123.308 44.0312 123.083 43.8162 122.806 43.8162C122.528 43.8162 122.303 44.0312 122.303 44.2964C122.303 44.5616 122.528 44.7766 122.806 44.7766Z" stroke="#070257" stroke-width="0.0438622" stroke-miterlimit="10"/>
<path d="M121.867 43.915C121.928 43.915 121.978 43.8676 121.978 43.8091C121.978 43.7506 121.928 43.7031 121.867 43.7031C121.806 43.7031 121.756 43.7506 121.756 43.8091C121.756 43.8676 121.806 43.915 121.867 43.915Z" fill="#070257"/>
<path d="M122.747 45.1226H125.741C126.509 45.1226 127.13 44.5294 127.13 43.7949V40.7794C127.13 40.045 126.509 39.4518 125.741 39.4518H122.747C121.978 39.4518 121.357 40.045 121.357 40.7794V43.7949C121.349 44.5294 121.978 45.1226 122.747 45.1226Z" stroke="#070257" stroke-width="0.0584657" stroke-miterlimit="10"/>
<path d="M122.628 45.3487H125.852C126.68 45.3487 127.352 44.706 127.352 43.9151V40.6665C127.352 39.8756 126.68 39.2329 125.852 39.2329H122.628C121.801 39.2329 121.128 39.8756 121.128 40.6665V43.9151C121.128 44.706 121.801 45.3487 122.628 45.3487Z" stroke="#070257" stroke-width="0.0630068" stroke-miterlimit="10"/>
<path d="M122.806 43.2936C123.385 43.2936 123.855 42.8446 123.855 42.2908C123.855 41.7369 123.385 41.288 122.806 41.288C122.226 41.288 121.756 41.7369 121.756 42.2908C121.756 42.8446 122.226 43.2936 122.806 43.2936Z" stroke="#070257" stroke-width="0.0584657" stroke-miterlimit="10"/>
</g>
<g clip-path="url(#clip8_3513_1706)">
<path d="M124.27 99.3945C123.774 99.3945 123.368 99.7759 123.368 100.256C123.368 100.736 123.767 101.125 124.27 101.125C124.772 101.125 125.179 100.743 125.179 100.256C125.172 99.7759 124.765 99.3945 124.27 99.3945ZM124.27 100.998C123.841 100.998 123.493 100.666 123.493 100.256C123.493 99.8465 123.848 99.5146 124.27 99.5146C124.706 99.5146 125.046 99.8536 125.046 100.256C125.046 100.666 124.706 100.998 124.27 100.998Z" fill="#070257"/>
<path d="M124.268 99.8184C124.017 99.8184 123.81 100.016 123.81 100.256C123.81 100.503 124.017 100.701 124.268 100.701C124.52 100.701 124.734 100.503 124.734 100.256C124.734 100.009 124.52 99.8184 124.268 99.8184ZM124.268 100.631C124.047 100.631 123.869 100.461 123.869 100.249C123.869 100.037 124.047 99.8678 124.268 99.8678C124.49 99.8678 124.667 100.037 124.667 100.249C124.667 100.468 124.49 100.631 124.268 100.631Z" fill="#070257"/>
<path d="M124.269 100.489C124.404 100.489 124.513 100.385 124.513 100.256C124.513 100.128 124.404 100.023 124.269 100.023C124.134 100.023 124.025 100.128 124.025 100.256C124.025 100.385 124.134 100.489 124.269 100.489Z" fill="#070257"/>
<path d="M124.27 96.2874C123.774 96.2874 123.368 96.6687 123.368 97.1489C123.368 97.6291 123.767 98.0176 124.27 98.0176C124.772 98.0176 125.179 97.6362 125.179 97.1489C125.172 96.6758 124.765 96.2874 124.27 96.2874ZM124.27 97.8975C123.841 97.8975 123.493 97.5656 123.493 97.156C123.493 96.7464 123.848 96.4145 124.27 96.4145C124.706 96.4145 125.046 96.7535 125.046 97.156C125.046 97.5656 124.706 97.8975 124.27 97.8975Z" fill="#070257"/>
<path d="M124.268 96.7111C124.017 96.7111 123.81 96.9088 123.81 97.1489C123.81 97.3961 124.017 97.5938 124.268 97.5938C124.52 97.5938 124.734 97.3961 124.734 97.1489C124.734 96.9088 124.52 96.7111 124.268 96.7111ZM124.268 97.5303C124.047 97.5303 123.869 97.3608 123.869 97.1489C123.869 96.937 124.047 96.7676 124.268 96.7676C124.49 96.7676 124.667 96.937 124.667 97.1489C124.667 97.3608 124.49 97.5303 124.268 97.5303Z" fill="#070257"/>
<path d="M124.269 97.3821C124.404 97.3821 124.513 97.2778 124.513 97.1491C124.513 97.0204 124.404 96.916 124.269 96.916C124.134 96.916 124.025 97.0204 124.025 97.1491C124.025 97.2778 124.134 97.3821 124.269 97.3821Z" fill="#070257"/>
<path d="M122.658 97.8269C122.163 97.8269 121.756 98.2083 121.756 98.6885C121.756 99.1687 122.155 99.5571 122.658 99.5571C123.161 99.5571 123.567 99.1758 123.567 98.6885C123.567 98.2083 123.161 97.8269 122.658 97.8269ZM122.658 99.43C122.229 99.43 121.882 99.0981 121.882 98.6885C121.882 98.2789 122.236 97.947 122.658 97.947C123.094 97.947 123.434 98.2859 123.434 98.6885C123.441 99.0981 123.094 99.43 122.658 99.43Z" fill="#070257"/>
<path d="M122.658 98.2505C122.407 98.2505 122.2 98.4482 122.2 98.6883C122.2 98.9355 122.407 99.1332 122.658 99.1332C122.909 99.1332 123.124 98.9355 123.124 98.6883C123.124 98.4412 122.917 98.2505 122.658 98.2505ZM122.658 99.0626C122.436 99.0626 122.259 98.8931 122.259 98.6813C122.259 98.4694 122.436 98.2999 122.658 98.2999C122.88 98.2999 123.057 98.4694 123.057 98.6813C123.057 98.9002 122.88 99.0626 122.658 99.0626Z" fill="#070257"/>
<path d="M122.659 98.9215C122.793 98.9215 122.903 98.8172 122.903 98.6885C122.903 98.5598 122.793 98.4554 122.659 98.4554C122.524 98.4554 122.415 98.5598 122.415 98.6885C122.415 98.8172 122.524 98.9215 122.659 98.9215Z" fill="#070257"/>
<path d="M124.269 101.647C125.972 101.647 127.352 100.329 127.352 98.7026C127.352 97.0762 125.972 95.7577 124.269 95.7577C122.567 95.7577 121.187 97.0762 121.187 98.7026C121.187 100.329 122.567 101.647 124.269 101.647Z" stroke="#070257" stroke-width="0.216937" stroke-miterlimit="10"/>
<path d="M125.778 99.7902C125.843 99.7902 125.896 99.7396 125.896 99.6772C125.896 99.6148 125.843 99.5642 125.778 99.5642C125.712 99.5642 125.659 99.6148 125.659 99.6772C125.659 99.7396 125.712 99.7902 125.778 99.7902Z" fill="#070257"/>
<path d="M126.176 98.759H125.348L125.429 98.6178H126.228L126.176 98.759Z" fill="#070257"/>
<path d="M126.082 99.0768H125.935L126.223 98.2365H126.371L126.082 99.0768Z" fill="#070257"/>
<path d="M125.646 99.0768H125.498L125.786 98.2365H125.934L125.646 99.0768Z" fill="#070257"/>
</g>
<g clip-path="url(#clip9_3513_1706)">
<path d="M38.1178 41.1609C38.6976 41.1609 39.1676 40.7119 39.1676 40.1581C39.1676 39.6042 38.6976 39.1553 38.1178 39.1553C37.5381 39.1553 37.0681 39.6042 37.0681 40.1581C37.0681 40.7119 37.5381 41.1609 38.1178 41.1609Z" stroke="#070257" stroke-width="0.0584657" stroke-miterlimit="10"/>
<path d="M38.1187 41.3162C38.7882 41.3162 39.331 40.7977 39.331 40.1581C39.331 39.5184 38.7882 38.9999 38.1187 38.9999C37.4491 38.9999 36.9063 39.5184 36.9063 40.1581C36.9063 40.7977 37.4491 41.3162 38.1187 41.3162Z" stroke="#070257" stroke-width="0.0678058" stroke-miterlimit="10"/>
<path d="M38.118 40.6877C38.4242 40.6877 38.6724 40.4506 38.6724 40.1581C38.6724 39.8656 38.4242 39.6284 38.118 39.6284C37.8118 39.6284 37.5635 39.8656 37.5635 40.1581C37.5635 40.4506 37.8118 40.6877 38.118 40.6877Z" fill="#070257"/>
<path d="M38.1178 44.1128C38.6976 44.1128 39.1676 43.6638 39.1676 43.11C39.1676 42.5562 38.6976 42.1072 38.1178 42.1072C37.5381 42.1072 37.0681 42.5562 37.0681 43.11C37.0681 43.6638 37.5381 44.1128 38.1178 44.1128Z" stroke="#070257" stroke-width="0.0584657" stroke-miterlimit="10"/>
<path d="M38.1187 44.2681C38.7882 44.2681 39.331 43.7496 39.331 43.11C39.331 42.4703 38.7882 41.9518 38.1187 41.9518C37.4491 41.9518 36.9063 42.4703 36.9063 43.11C36.9063 43.7496 37.4491 44.2681 38.1187 44.2681Z" stroke="#070257" stroke-width="0.0678058" stroke-miterlimit="10"/>
<path d="M38.118 43.6395C38.4242 43.6395 38.6724 43.4024 38.6724 43.1099C38.6724 42.8173 38.4242 42.5802 38.118 42.5802C37.8118 42.5802 37.5635 42.8173 37.5635 43.1099C37.5635 43.4024 37.8118 43.6395 38.118 43.6395Z" fill="#070257"/>
<path d="M41.883 42.6651C42.0463 42.6651 42.1787 42.5386 42.1787 42.3826C42.1787 42.2266 42.0463 42.1001 41.883 42.1001C41.7197 42.1001 41.5873 42.2266 41.5873 42.3826C41.5873 42.5386 41.7197 42.6651 41.883 42.6651Z" fill="#070257"/>
<path d="M41.883 43.5125C42.0463 43.5125 42.1787 43.386 42.1787 43.23C42.1787 43.074 42.0463 42.9475 41.883 42.9475C41.7197 42.9475 41.5873 43.074 41.5873 43.23C41.5873 43.386 41.7197 43.5125 41.883 43.5125Z" fill="#070257"/>
<path d="M38.1178 47.0718C38.6976 47.0718 39.1676 46.6228 39.1676 46.069C39.1676 45.5151 38.6976 45.0662 38.1178 45.0662C37.5381 45.0662 37.0681 45.5151 37.0681 46.069C37.0681 46.6228 37.5381 47.0718 38.1178 47.0718Z" stroke="#070257" stroke-width="0.0584657" stroke-miterlimit="10"/>
<path d="M38.1187 47.2271C38.7882 47.2271 39.331 46.7086 39.331 46.0689C39.331 45.4293 38.7882 44.9108 38.1187 44.9108C37.4491 44.9108 36.9063 45.4293 36.9063 46.0689C36.9063 46.7086 37.4491 47.2271 38.1187 47.2271Z" stroke="#070257" stroke-width="0.0678058" stroke-miterlimit="10"/>
<path d="M38.118 46.5987C38.4242 46.5987 38.6724 46.3616 38.6724 46.0691C38.6724 45.7766 38.4242 45.5394 38.118 45.5394C37.8118 45.5394 37.5635 45.7766 37.5635 46.0691C37.5635 46.3616 37.8118 46.5987 38.118 46.5987Z" fill="#070257"/>
<path d="M38.1182 47.8416C37.1942 47.8416 36.4401 47.1283 36.4401 46.2385V39.9886C36.4401 39.1058 37.1868 38.3855 38.1182 38.3855C39.0423 38.3855 39.7963 39.0988 39.7963 39.9886V46.2385C39.7889 47.1213 39.0423 47.8416 38.1182 47.8416Z" stroke="#070257" stroke-width="0.129006" stroke-miterlimit="10"/>
<path d="M41.8818 43.901C41.564 43.901 41.3052 43.6538 41.3052 43.3502V42.2979C41.3052 41.9942 41.564 41.7471 41.8818 41.7471C42.1997 41.7471 42.4585 41.9942 42.4585 42.2979V43.3502C42.4585 43.6538 42.1997 43.901 41.8818 43.901Z" stroke="#070257" stroke-width="0.0774039" stroke-miterlimit="10"/>
</g>
<g clip-path="url(#clip10_3513_1706)">
<path d="M37.9119 98.6177C38.5365 98.6177 39.0429 98.1339 39.0429 97.5372C39.0429 96.9404 38.5365 96.4567 37.9119 96.4567C37.2872 96.4567 36.7808 96.9404 36.7808 97.5372C36.7808 98.1339 37.2872 98.6177 37.9119 98.6177Z" stroke="#070257" stroke-width="0.168224" stroke-miterlimit="10"/>
<path d="M37.913 98.088C38.2315 98.088 38.4896 97.8414 38.4896 97.5372C38.4896 97.2329 38.2315 96.9863 37.913 96.9863C37.5946 96.9863 37.3364 97.2329 37.3364 97.5372C37.3364 97.8414 37.5946 98.088 37.913 98.088Z" fill="#070257"/>
<path d="M41.0161 97.5796C41.3998 97.5796 41.7109 97.2824 41.7109 96.9158C41.7109 96.5492 41.3998 96.252 41.0161 96.252C40.6323 96.252 40.3212 96.5492 40.3212 96.9158C40.3212 97.2824 40.6323 97.5796 41.0161 97.5796Z" stroke="#070257" stroke-width="0.0411789" stroke-miterlimit="10"/>
<path d="M41.0168 97.495C41.3516 97.495 41.623 97.2357 41.623 96.9159C41.623 96.5961 41.3516 96.3368 41.0168 96.3368C40.682 96.3368 40.4106 96.5961 40.4106 96.9159C40.4106 97.2357 40.682 97.495 41.0168 97.495Z" fill="#070257"/>
<path d="M37.9119 100.058C38.1242 100.058 38.2963 99.894 38.2963 99.6912C38.2963 99.4884 38.1242 99.324 37.9119 99.324C37.6996 99.324 37.5275 99.4884 37.5275 99.6912C37.5275 99.894 37.6996 100.058 37.9119 100.058Z" fill="#070257"/>
<path d="M41.0458 99.7617C41.254 99.7617 41.4228 99.6005 41.4228 99.4015C41.4228 99.2026 41.254 99.0414 41.0458 99.0414C40.8376 99.0414 40.6688 99.2026 40.6688 99.4015C40.6688 99.6005 40.8376 99.7617 41.0458 99.7617Z" fill="#070257"/>
<path d="M42.5409 96.6191V98.8719C42.5409 99.0414 42.467 99.2109 42.3413 99.331L40.3602 101.224C40.2788 101.301 40.1754 101.344 40.0571 101.344H36.9449C36.6122 101.344 36.3387 101.082 36.3387 100.765V96.5979C36.3387 96.2872 36.5974 96.04 36.9227 96.04H41.9347C42.2674 96.04 42.5409 96.3013 42.5409 96.6191Z" stroke="#070257" stroke-width="0.0841122" stroke-miterlimit="10"/>
</g>
<g clip-path="url(#clip11_3513_1706)">
<path d="M75.9555 67.6834C76.0017 67.6417 76.0353 67.601 76.0561 67.5611C76.077 67.5213 76.0879 67.4835 76.0888 67.4477C76.0903 67.4113 76.0833 67.3767 76.0678 67.344C76.053 67.3107 76.0323 67.2797 76.0059 67.251C75.9783 67.221 75.9491 67.1984 75.9181 67.1831C75.8865 67.1672 75.8533 67.1599 75.8183 67.1611C75.7827 67.1617 75.7451 67.1717 75.7054 67.1911C75.6664 67.2099 75.625 67.2391 75.5812 67.2786L75.3306 67.5045L75.7039 67.9102L75.9555 67.6834ZM74.7987 66.9266L75.1668 67.3266L75.3647 67.1481C75.4498 67.0714 75.4992 66.9977 75.513 66.9269C75.5274 66.8555 75.5026 66.7851 75.4387 66.7156C75.3723 66.6435 75.3053 66.6099 75.2377 66.6149C75.1701 66.6198 75.0943 66.6601 75.0105 66.7357L74.7987 66.9266ZM74.8273 66.5367C74.9149 66.4578 74.9977 66.3988 75.0758 66.3599C75.1539 66.321 75.2274 66.2997 75.2962 66.296C75.3656 66.2918 75.4304 66.304 75.4906 66.3326C75.5508 66.3612 75.607 66.4039 75.6592 66.4607C75.6892 66.4932 75.7133 66.5286 75.7317 66.5669C75.7494 66.6046 75.7605 66.6454 75.7648 66.6893C75.7692 66.7321 75.7659 66.7776 75.7551 66.8259C75.7449 66.8736 75.7259 66.9234 75.6981 66.9754C75.9211 66.8524 76.1075 66.8723 76.2572 67.035C76.3112 67.0937 76.3503 67.1576 76.3745 67.2268C76.3987 67.296 76.4069 67.3674 76.3991 67.441C76.3906 67.514 76.3656 67.5879 76.324 67.6628C76.2824 67.7377 76.2227 67.8101 76.145 67.8802L75.6401 68.3354L74.3668 66.9519L74.8273 66.5367ZM77.1015 66.1952C77.0795 66.16 77.0538 66.13 77.0245 66.1052C76.9955 66.0792 76.9639 66.0603 76.9299 66.0483C76.8958 66.0363 76.8596 66.0326 76.8213 66.0372C76.7831 66.0407 76.7444 66.0541 76.7049 66.0774C76.6282 66.1227 76.5815 66.1809 76.565 66.2518C76.5493 66.3223 76.561 66.4022 76.6001 66.4914L77.1015 66.1952ZM76.6972 66.6583C76.7377 66.7136 76.7792 66.7578 76.8216 66.7909C76.8635 66.8233 76.9061 66.8458 76.9493 66.8584C76.9921 66.8702 77.0354 66.8727 77.0793 66.8659C77.1234 66.8579 77.167 66.8411 77.21 66.8157C77.253 66.7903 77.2868 66.7633 77.3112 66.7349C77.3363 66.706 77.3565 66.6785 77.3716 66.6525C77.3875 66.6261 77.4008 66.6026 77.4116 66.5822C77.4232 66.5614 77.4372 66.5461 77.4537 66.5363C77.4759 66.5232 77.4977 66.5218 77.519 66.5323L77.6572 66.586C77.6499 66.6386 77.6354 66.6877 77.614 66.7335C77.5921 66.7785 77.5656 66.8203 77.5346 66.8586C77.5039 66.8959 77.4696 66.9297 77.4316 66.9601C77.3944 66.9901 77.3564 67.0166 77.3177 67.0395C77.241 67.0848 77.1616 67.1142 77.0795 67.1276C76.997 67.1402 76.9156 67.1356 76.8352 67.1139C76.7543 67.0915 76.6765 67.0512 76.6018 66.9931C76.5266 66.9342 76.458 66.8553 76.3961 66.7564C76.348 66.6796 76.315 66.6002 76.2972 66.5184C76.2789 66.4359 76.2768 66.3564 76.2908 66.2799C76.3051 66.2023 76.3357 66.1295 76.3826 66.0617C76.4302 65.9934 76.4953 65.9349 76.5778 65.8862C76.6474 65.845 76.7187 65.8185 76.7917 65.8064C76.8647 65.7943 76.9361 65.7978 77.006 65.8167C77.0753 65.8349 77.1418 65.8689 77.2054 65.9186C77.2692 65.9671 77.3266 66.0321 77.3775 66.1133C77.4031 66.1544 77.4163 66.1847 77.4168 66.2044C77.4169 66.2234 77.4048 66.2402 77.3804 66.2546L76.6972 66.6583ZM77.5448 64.7755L78.278 66.5453L77.9871 66.6536L77.2539 64.8838L77.5448 64.7755ZM78.1295 64.558L78.8623 66.328L78.5714 66.4362L77.8385 64.6662L78.1295 64.558ZM80.0645 64.7777L79.6999 66.5285C79.6952 66.5517 79.6864 66.5699 79.6736 66.5831C79.6618 66.5971 79.6409 66.6065 79.6109 66.6112L79.3807 66.6479L79.5154 66.0933L78.7534 64.9865L79.0249 64.9433C79.0491 64.9394 79.069 64.9423 79.0848 64.9519C79.1013 64.9613 79.1145 64.973 79.1242 64.987L79.5331 65.6103C79.5469 65.6314 79.559 65.6528 79.5694 65.6744C79.5807 65.6959 79.5917 65.7179 79.6023 65.7404C79.605 65.7158 79.6078 65.6916 79.6107 65.6679C79.6134 65.6433 79.6171 65.619 79.6217 65.5949L79.7435 64.8884C79.7468 64.8706 79.7548 64.8551 79.7676 64.8418C79.7812 64.8285 79.7976 64.8202 79.8168 64.8172L80.0645 64.7777ZM81.7988 65.9129C81.8624 65.9216 81.9165 65.9213 81.9612 65.9122C82.0058 65.903 82.042 65.8876 82.0698 65.8659C82.0985 65.8444 82.1199 65.8176 82.1341 65.7856C82.1492 65.7537 82.1585 65.7189 82.162 65.6812C82.1658 65.6418 82.1628 65.6057 82.153 65.573C82.1433 65.5394 82.1259 65.5098 82.1009 65.4843C82.0759 65.458 82.0423 65.436 82.0002 65.4184C81.9589 65.4008 81.9082 65.3879 81.848 65.3797L81.5035 65.3325L81.453 65.8656L81.7988 65.9129ZM81.5754 64.5733L81.5257 65.0987L81.7977 65.136C81.9147 65.152 82.0048 65.1431 82.0681 65.1093C82.1323 65.0756 82.1687 65.0131 82.1773 64.9218C82.1863 64.8271 82.1656 64.7559 82.1151 64.7082C82.0647 64.6606 81.9819 64.6289 81.8666 64.6131L81.5754 64.5733ZM81.8914 64.3516C82.0117 64.3681 82.1136 64.3935 82.1971 64.4279C82.2805 64.4622 82.3474 64.504 82.3977 64.5534C82.4488 64.6028 82.4843 64.659 82.5041 64.722C82.5238 64.785 82.5302 64.8538 82.5231 64.9284C82.5191 64.9711 82.5088 65.0113 82.4924 65.0489C82.476 65.0857 82.4527 65.1195 82.4223 65.1501C82.3928 65.1801 82.356 65.206 82.3119 65.228C82.2686 65.2501 82.2176 65.2669 82.159 65.2784C82.4063 65.3691 82.5198 65.5213 82.4995 65.735C82.4922 65.8121 82.4706 65.8813 82.4348 65.9426C82.3989 66.0039 82.3503 66.0546 82.289 66.0946C82.2278 66.1337 82.1544 66.161 82.0688 66.1765C81.9832 66.1919 81.887 66.1924 81.7802 66.1777L81.086 66.0827L81.2582 64.265L81.8914 64.3516ZM84.1324 65.4715L83.7553 66.7007L83.5707 66.6375C83.5307 66.6238 83.511 66.5972 83.5114 66.5577L83.5207 66.4523C83.4537 66.4858 83.3843 66.508 83.3125 66.5187C83.241 66.5287 83.1633 66.5193 83.0793 66.4905C83.0108 66.4671 82.9535 66.4351 82.9074 66.3946C82.8623 66.3536 82.8282 66.3062 82.8051 66.2524C82.7819 66.1986 82.7697 66.1401 82.7683 66.077C82.768 66.0133 82.7784 65.9472 82.7995 65.8785L83.0391 65.0973L83.3412 65.2007L83.1016 65.9819C83.0785 66.0569 83.0782 66.1212 83.1005 66.1748C83.1239 66.2278 83.171 66.2664 83.2419 66.2907C83.2941 66.3086 83.3465 66.3141 83.399 66.3074C83.4517 66.2998 83.5046 66.2831 83.5576 66.2571L83.8303 65.3681L84.1324 65.4715ZM84.4055 67.0783C84.3061 67.0184 84.2453 66.9454 84.2232 66.8593C84.2023 66.773 84.2195 66.6821 84.2751 66.5865L84.6338 65.9691L84.517 65.8987C84.5021 65.8898 84.4922 65.8775 84.4873 65.8619C84.4823 65.8463 84.4853 65.8292 84.4961 65.8105L84.5575 65.7049L84.758 65.7865L84.9912 65.5196C85.0033 65.5075 85.0168 65.5006 85.0318 65.499C85.0467 65.4973 85.0624 65.5014 85.0787 65.5112L85.2212 65.5971L85.0189 65.9451L85.4941 66.2314L85.729 65.9641C85.7411 65.952 85.7543 65.9449 85.7685 65.9428C85.7835 65.9412 85.7995 65.9455 85.8166 65.9558L85.9579 66.0409L85.7556 66.3889L86.0606 66.5727L85.9504 66.7623L85.6454 66.5786L85.2973 67.1777C85.2773 67.2122 85.2705 67.2445 85.2771 67.2746C85.2836 67.3047 85.3021 67.3289 85.3325 67.3473C85.3488 67.3571 85.364 67.3638 85.3779 67.3673C85.3923 67.3702 85.4048 67.3719 85.4155 67.3725C85.4269 67.3736 85.437 67.3743 85.4457 67.3747C85.4549 67.3745 85.4628 67.3763 85.4695 67.3804C85.4777 67.3853 85.4831 67.3914 85.4858 67.3989C85.4889 67.4056 85.4911 67.4147 85.4925 67.4262L85.4997 67.6051C85.4408 67.6133 85.3806 67.61 85.3191 67.5952C85.2576 67.5805 85.199 67.5563 85.1433 67.5228C85.0439 67.4629 84.9832 67.3899 84.9611 67.3039C84.9394 67.2171 84.9563 67.1259 85.0118 67.0304L85.3706 66.413L84.9087 66.1347L84.5606 66.7338C84.5405 66.7683 84.5334 66.8004 84.5392 66.8301C84.5458 66.8602 84.5642 66.8844 84.5947 66.9027C84.6117 66.913 84.6269 66.9197 84.6401 66.9228C84.6544 66.9257 84.667 66.9274 84.6776 66.928C84.689 66.9291 84.6991 66.9298 84.7079 66.9302C84.7171 66.9299 84.725 66.9318 84.7317 66.9358C84.7398 66.9407 84.7453 66.9469 84.748 66.9544C84.7511 66.9611 84.7533 66.9702 84.7546 66.9817L84.7618 67.1606C84.703 67.1688 84.6428 67.1655 84.5813 67.1507C84.5197 67.1359 84.4611 67.1118 84.4055 67.0783ZM86.8855 67.2541C86.9576 67.3218 87.0124 67.3944 87.0501 67.472C87.0885 67.5501 87.1091 67.6292 87.1121 67.7094C87.1157 67.7902 87.1009 67.8708 87.0678 67.9512C87.0347 68.0316 86.9837 68.1083 86.9147 68.1812C86.8451 68.2548 86.771 68.3104 86.6924 68.3481C86.6138 68.3858 86.5336 68.4055 86.4519 68.4073C86.3709 68.4097 86.2901 68.3942 86.2095 68.3607C86.1297 68.3277 86.0537 68.2774 85.9816 68.2097C85.9089 68.1415 85.8534 68.0683 85.815 67.9902C85.7767 67.912 85.756 67.8323 85.753 67.7509C85.7506 67.6702 85.7657 67.5893 85.7981 67.5082C85.8313 67.4278 85.8826 67.3508 85.9521 67.2773C86.0211 67.2043 86.0949 67.149 86.1736 67.1113C86.2528 67.0742 86.3327 67.0548 86.4132 67.053C86.4943 67.0518 86.5751 67.0679 86.6556 67.1015C86.7362 67.135 86.8128 67.1859 86.8855 67.2541ZM86.1441 68.038C86.225 68.114 86.3093 68.1442 86.3969 68.1286C86.4851 68.1135 86.5765 68.056 86.6711 67.9559C86.7658 67.8559 86.8183 67.7612 86.8287 67.672C86.8397 67.5833 86.8048 67.501 86.7239 67.425C86.6417 67.3478 86.5556 67.3171 86.4656 67.3327C86.3768 67.3483 86.2854 67.4058 86.1913 67.5053C86.0972 67.6047 86.045 67.6991 86.0346 67.7883C86.0254 67.8776 86.0619 67.9608 86.1441 68.038ZM87.7241 68.4322C87.761 68.4392 87.797 68.4484 87.832 68.4599C87.8682 68.4716 87.9022 68.4865 87.9338 68.5046C87.9666 68.5229 87.9976 68.545 88.0267 68.5711C88.0566 68.5967 88.0848 68.6277 88.1112 68.6641C88.1539 68.723 88.1818 68.782 88.195 68.8413C88.2089 68.9001 88.2091 68.9569 88.1954 69.0117C88.1829 69.0668 88.1577 69.1191 88.1197 69.1686C88.0829 69.2184 88.0351 69.2638 87.9764 69.3046L87.3074 69.7694L87.1191 69.5099L87.7881 69.0451C87.8523 69.0005 87.8909 68.951 87.9039 68.8967C87.9176 68.8419 87.902 68.7837 87.8573 68.722C87.8248 68.6772 87.7844 68.642 87.7361 68.6166C87.6879 68.5911 87.634 68.5728 87.5744 68.5615L86.8142 69.0897L86.626 68.8301L87.6771 68.0998L87.7922 68.2584C87.8166 68.2921 87.8172 68.3248 87.7941 68.3567L87.7241 68.4322Z" fill="#070257"/>
<path d="M81.1419 67.301C77.8526 67.301 75.1863 69.8173 75.1863 72.9216C75.1863 76.0259 77.8526 78.5422 81.1419 78.5422C84.4312 78.5422 87.0975 76.0259 87.0975 72.9216C87.0975 69.8173 84.4312 67.301 81.1419 67.301ZM78.2099 72.6709H76.3957C76.2949 72.1001 76.5973 71.3392 76.5973 71.3392C77.3395 71.2095 78.4848 72.0396 78.4848 72.0396L78.2099 72.6709ZM76.9638 70.8896C78.2465 68.5116 80.2989 68.6673 80.2989 68.6673V70.2237C79.3918 70.7339 78.4756 71.4949 78.4756 71.4949L76.9638 70.8896ZM81.1419 74.7721C80.0607 74.7721 79.1903 73.942 79.1903 72.9303C79.1903 71.9099 80.0699 71.0884 81.1419 71.0884C82.2231 71.0884 83.0935 71.9099 83.0935 72.9303C83.0935 73.942 82.2231 74.7721 81.1419 74.7721ZM83.6524 75.6628C83.3958 75.6628 83.176 75.4639 83.176 75.2131C83.176 74.971 83.3867 74.7721 83.6524 74.7721C83.9181 74.7721 84.1289 74.971 84.1289 75.2131C84.1197 75.4639 83.9089 75.6628 83.6524 75.6628Z" fill="#070257"/>
</g>
</g>
<path d="M23.8297 129.922L23.8404 125.832L22.4218 125.828L22.4238 125.074L26.1813 125.084L26.1793 125.838L24.7677 125.834L24.7569 129.924L23.8297 129.922ZM27.766 130.015C27.4846 130.014 27.2426 129.956 27.0399 129.84C26.8418 129.72 26.69 129.546 26.5845 129.32C26.479 129.089 26.4267 128.805 26.4276 128.468L26.4329 126.441L27.3671 126.443L27.362 128.374C27.3613 128.655 27.4184 128.868 27.5334 129.011C27.6529 129.154 27.835 129.226 28.0795 129.227C28.2363 129.227 28.3748 129.193 28.4949 129.124C28.6151 129.051 28.7099 128.947 28.7795 128.813C28.8536 128.675 28.891 128.507 28.8915 128.309L28.8964 126.447L29.8236 126.45L29.8145 129.937L28.998 129.935L28.9233 129.367C28.8213 129.566 28.671 129.724 28.4723 129.844C28.2736 129.959 28.0382 130.016 27.766 130.015ZM30.7294 129.94L30.7385 126.452L31.5689 126.454L31.6572 127.098C31.7406 126.946 31.8448 126.817 31.9696 126.711C32.0991 126.605 32.2446 126.523 32.4062 126.463C32.5724 126.404 32.7547 126.374 32.9531 126.375L32.9505 127.364L32.6322 127.363C32.4938 127.363 32.3646 127.379 32.2446 127.411C32.1292 127.443 32.0275 127.496 31.9397 127.569C31.8518 127.638 31.7847 127.735 31.7382 127.859C31.6918 127.984 31.6683 128.141 31.6678 128.33L31.6636 129.942L30.7294 129.94ZM33.5609 129.947L33.57 126.459L34.3935 126.462L34.4612 127.029C34.5678 126.836 34.7181 126.679 34.9122 126.56C35.1109 126.44 35.3463 126.381 35.6185 126.382C35.9091 126.382 36.1535 126.443 36.3515 126.564C36.5496 126.684 36.6991 126.86 36.8 127.091C36.9055 127.322 36.9578 127.605 36.9569 127.942L36.9516 129.956L36.0244 129.953L36.0294 128.03C36.0301 127.753 35.9707 127.541 35.8511 127.393C35.7362 127.245 35.5565 127.17 35.312 127.17C35.1551 127.169 35.0143 127.206 34.8896 127.279C34.7694 127.353 34.6746 127.459 34.605 127.597C34.5355 127.731 34.5004 127.894 34.4999 128.088L34.4951 129.949L33.5609 129.947ZM39.8992 131.486L40.7485 129.578L40.5409 129.578L39.1512 126.474L40.1684 126.477L41.159 128.728L42.0644 126.482L43.054 126.484L40.8888 131.489L39.8992 131.486ZM44.986 130.06C44.6538 130.059 44.3542 129.982 44.087 129.829C43.8245 129.672 43.6151 129.457 43.459 129.184C43.3075 128.907 43.2322 128.591 43.2331 128.235C43.2341 127.871 43.311 127.553 43.464 127.281C43.6215 127.005 43.8343 126.791 44.1023 126.639C44.3702 126.483 44.6703 126.405 45.0025 126.406C45.3392 126.407 45.6389 126.486 45.9014 126.644C46.1686 126.797 46.378 127.012 46.5295 127.289C46.6856 127.562 46.7632 127.878 46.7623 128.238C46.7613 128.598 46.6821 128.916 46.5245 129.192C46.3715 129.464 46.1611 129.678 45.8931 129.834C45.6251 129.986 45.3228 130.061 44.986 130.06ZM44.9881 129.25C45.145 129.251 45.2834 129.214 45.4036 129.141C45.5283 129.067 45.6255 128.954 45.6951 128.802C45.7693 128.65 45.8067 128.461 45.8073 128.235C45.8079 128.009 45.7715 127.822 45.6981 127.674C45.6293 127.522 45.5327 127.409 45.4083 127.335C45.2886 127.256 45.1526 127.216 45.0004 127.216C44.8527 127.216 44.7165 127.254 44.5918 127.332C44.467 127.406 44.3675 127.519 44.2933 127.671C44.2237 127.818 44.1887 128.005 44.1881 128.231C44.1875 128.457 44.2216 128.646 44.2904 128.799C44.3638 128.951 44.4604 129.064 44.5801 129.139C44.7045 129.213 44.8405 129.25 44.9881 129.25ZM48.8636 130.07C48.5821 130.069 48.3401 130.011 48.1374 129.895C47.9394 129.775 47.7876 129.601 47.6821 129.375C47.5766 129.144 47.5243 128.86 47.5251 128.523L47.5304 126.496L48.4646 126.498L48.4596 128.429C48.4588 128.71 48.5159 128.923 48.6309 129.066C48.7505 129.209 48.9325 129.281 49.177 129.282C49.3339 129.282 49.4724 129.248 49.5925 129.179C49.7126 129.106 49.8075 129.002 49.877 128.869C49.9512 128.731 49.9885 128.562 49.989 128.364L49.9939 126.502L50.9212 126.505L50.9121 129.992L50.0955 129.99L50.0209 129.423C49.9189 129.621 49.7685 129.78 49.5698 129.899C49.3712 130.014 49.1357 130.071 48.8636 130.07ZM51.8269 129.995L51.8361 126.507L52.6665 126.509L52.7547 127.153C52.8382 127.001 52.9423 126.872 53.0671 126.766C53.1966 126.661 53.3421 126.578 53.5037 126.519C53.67 126.459 53.8523 126.429 54.0507 126.43L54.0481 127.42L53.7297 127.419C53.5914 127.418 53.4621 127.434 53.3421 127.466C53.2267 127.498 53.1251 127.551 53.0372 127.624C52.9494 127.693 52.8822 127.79 52.8358 127.915C52.7893 128.039 52.7658 128.196 52.7653 128.385L52.7611 129.997L51.8269 129.995ZM56.4462 130.007L56.4561 126.208C56.4569 125.917 56.5059 125.687 56.6033 125.516C56.7006 125.346 56.8393 125.222 57.0194 125.144C57.2042 125.066 57.4188 125.027 57.6633 125.028L58.0923 125.029L58.0902 125.825L57.7996 125.824C57.652 125.824 57.5458 125.853 57.4811 125.913C57.4209 125.968 57.3907 126.067 57.3903 126.21L57.3804 130.009L56.4462 130.007ZM55.9758 127.3L55.9778 126.518L58.1438 126.524L58.1417 127.306L55.9758 127.3ZM58.8549 130.013L58.8641 126.526L59.6945 126.528L59.7827 127.172C59.8662 127.02 59.9703 126.891 60.0951 126.785C60.2246 126.679 60.3701 126.596 60.5318 126.537C60.698 126.477 60.8803 126.448 61.0787 126.448L61.0761 127.438L60.7578 127.437C60.6194 127.437 60.4901 127.453 60.3701 127.485C60.2547 127.517 60.1531 127.569 60.0652 127.643C59.9774 127.712 59.9102 127.809 59.8638 127.933C59.8173 128.057 59.7938 128.214 59.7934 128.403L59.7891 130.016L58.8549 130.013ZM61.7072 130.021L61.7163 126.533L62.6505 126.536L62.6414 130.023L61.7072 130.021ZM62.1881 126.057C62.022 126.056 61.8838 126.008 61.7733 125.91C61.6675 125.809 61.6147 125.682 61.6151 125.529C61.6155 125.377 61.6689 125.253 61.7753 125.156C61.8863 125.055 62.0248 125.005 62.1909 125.005C62.3616 125.005 62.4998 125.057 62.6057 125.158C62.7161 125.256 62.7712 125.38 62.7708 125.532C62.7704 125.685 62.7147 125.811 62.6037 125.913C62.4973 126.009 62.3588 126.057 62.1881 126.057ZM65.2597 130.113C64.9091 130.112 64.5979 130.038 64.3261 129.889C64.059 129.736 63.8496 129.526 63.6981 129.258C63.5512 128.985 63.4782 128.671 63.4791 128.316C63.48 127.952 63.5547 127.631 63.7031 127.355C63.856 127.074 64.0665 126.855 64.3345 126.699C64.6025 126.538 64.9141 126.458 65.2693 126.459C65.6153 126.46 65.9173 126.537 66.1752 126.69C66.4332 126.843 66.6333 127.049 66.7756 127.308C66.918 127.566 66.9887 127.859 66.9878 128.187C66.9877 128.233 66.9876 128.286 66.9874 128.346C66.9873 128.401 66.9825 128.459 66.9731 128.519L64.1429 128.512L64.1444 127.944L66.0474 127.949C66.0341 127.723 65.9538 127.545 65.8066 127.416C65.6639 127.286 65.4841 127.221 65.2673 127.221C65.1105 127.22 64.965 127.257 64.8311 127.33C64.6971 127.399 64.5907 127.507 64.5119 127.655C64.4377 127.802 64.4003 127.989 64.3997 128.215L64.3992 128.415C64.3987 128.605 64.4329 128.771 64.5017 128.914C64.5751 129.053 64.6763 129.161 64.8053 129.24C64.9343 129.314 65.0841 129.351 65.2548 129.352C65.4255 129.352 65.5663 129.316 65.6772 129.242C65.7927 129.169 65.8783 129.074 65.934 128.959L66.8889 128.962C66.8238 129.178 66.7149 129.374 66.5622 129.549C66.4095 129.724 66.2223 129.862 66.0006 129.963C65.7789 130.064 65.5319 130.114 65.2597 130.113ZM67.7481 130.037L67.7572 126.549L68.5807 126.551L68.6484 127.119C68.755 126.925 68.9053 126.769 69.0994 126.649C69.2981 126.53 69.5335 126.471 69.8057 126.471C70.0964 126.472 70.3407 126.533 70.5388 126.653C70.7368 126.774 70.8863 126.949 70.9872 127.18C71.0927 127.411 71.145 127.695 71.1441 128.032L71.1388 130.045L70.2116 130.043L70.2166 128.119C70.2173 127.842 70.1579 127.63 70.0383 127.482C69.9234 127.334 69.7437 127.26 69.4992 127.259C69.3423 127.259 69.2015 127.295 69.0768 127.369C68.9566 127.442 68.8618 127.548 68.7922 127.687C68.7227 127.82 68.6876 127.984 68.6871 128.178L68.6823 130.039L67.7481 130.037ZM73.5688 130.135C73.2505 130.134 72.9647 130.055 72.7113 129.897C72.4626 129.74 72.2671 129.522 72.1248 129.245C71.9826 128.968 71.9119 128.657 71.9128 128.311C71.9137 127.955 71.986 127.642 72.1298 127.37C72.2781 127.094 72.4794 126.877 72.7335 126.721C72.9923 126.56 73.2808 126.48 73.5991 126.481C73.8482 126.482 74.0672 126.529 74.2561 126.621C74.445 126.714 74.5969 126.846 74.7118 127.017L74.7169 125.072L75.6511 125.075L75.638 130.057L74.8077 130.055L74.7051 129.577C74.6357 129.674 74.5478 129.766 74.4414 129.853C74.3397 129.941 74.2173 130.01 74.0741 130.06C73.931 130.11 73.7625 130.135 73.5688 130.135ZM73.7924 129.319C73.9769 129.319 74.1385 129.278 74.2771 129.196C74.4203 129.108 74.5314 128.989 74.6102 128.837C74.689 128.685 74.7287 128.509 74.7292 128.311C74.7297 128.113 74.691 127.937 74.6129 127.785C74.5349 127.632 74.4245 127.514 74.2817 127.431C74.1435 127.343 73.9822 127.299 73.7977 127.298C73.6223 127.298 73.4631 127.341 73.3198 127.428C73.1766 127.511 73.0633 127.628 72.9798 127.781C72.901 127.933 72.8613 128.105 72.8608 128.299C72.8603 128.502 72.8991 128.68 72.9771 128.832C73.0597 128.985 73.1701 129.105 73.3083 129.193C73.4511 129.276 73.6124 129.318 73.7924 129.319ZM77.9786 130.146C77.6603 130.146 77.3837 130.094 77.1487 129.992C76.9136 129.89 76.7295 129.749 76.5962 129.568C76.4629 129.388 76.3873 129.185 76.3694 128.959L77.2967 128.961C77.3195 129.049 77.3585 129.13 77.4137 129.204C77.4689 129.273 77.5425 129.329 77.6347 129.37C77.7268 129.412 77.8375 129.433 77.9667 129.434C78.0912 129.434 78.1928 129.418 78.2713 129.386C78.3498 129.349 78.4076 129.301 78.4446 129.241C78.4863 129.181 78.5072 129.119 78.5074 129.054C78.5077 128.958 78.4802 128.884 78.425 128.833C78.3697 128.777 78.2891 128.733 78.1831 128.701C78.0771 128.668 77.948 128.635 77.7958 128.603C77.6299 128.57 77.4662 128.53 77.3048 128.484C77.1481 128.433 77.0076 128.37 76.8832 128.296C76.7589 128.222 76.6599 128.127 76.5864 128.011C76.5129 127.896 76.4764 127.753 76.4768 127.582C76.4774 127.374 76.5332 127.19 76.6443 127.029C76.7555 126.863 76.9173 126.732 77.1298 126.636C77.3422 126.539 77.5984 126.492 77.8983 126.492C78.3181 126.494 78.65 126.589 78.894 126.779C79.138 126.969 79.2826 127.23 79.3279 127.562L78.4491 127.56C78.4217 127.453 78.3596 127.37 78.2629 127.31C78.1708 127.245 78.0463 127.212 77.8894 127.212C77.7234 127.212 77.5964 127.241 77.5086 127.301C77.4208 127.361 77.3768 127.439 77.3765 127.536C77.3764 127.601 77.4039 127.658 77.4591 127.709C77.5189 127.76 77.6019 127.804 77.7079 127.841C77.8139 127.874 77.943 127.907 78.0951 127.939C78.3626 127.995 78.5977 128.06 78.8005 128.135C79.0033 128.205 79.1622 128.306 79.2771 128.441C79.3921 128.57 79.4493 128.759 79.4486 129.008C79.4481 129.23 79.3876 129.428 79.2672 129.603C79.1468 129.773 78.9757 129.907 78.7541 130.003C78.537 130.099 78.2785 130.147 77.9786 130.146ZM81.8857 130.074L81.8948 126.586L82.829 126.588L82.8199 130.076L81.8857 130.074ZM82.3666 126.11C82.2005 126.109 82.0623 126.06 81.9518 125.963C81.846 125.862 81.7932 125.735 81.7936 125.582C81.794 125.43 81.8474 125.306 81.9538 125.209C82.0648 125.108 82.2033 125.057 82.3694 125.058C82.5401 125.058 82.6783 125.109 82.7842 125.211C82.8946 125.308 82.9497 125.433 82.9493 125.585C82.9489 125.738 82.8932 125.864 82.7822 125.965C82.6758 126.062 82.5373 126.11 82.3666 126.11ZM83.7638 130.078L83.773 126.591L84.5964 126.593L84.6641 127.161C84.7708 126.967 84.9211 126.811 85.1152 126.691C85.3139 126.572 85.5493 126.512 85.8215 126.513C86.1121 126.514 86.3564 126.575 86.5545 126.695C86.7526 126.815 86.902 126.991 87.0029 127.222C87.1084 127.453 87.1607 127.737 87.1598 128.074L87.1546 130.087L86.2273 130.085L86.2323 128.161C86.2331 127.884 86.1737 127.672 86.0541 127.524C85.9392 127.376 85.7594 127.302 85.5149 127.301C85.3581 127.301 85.2173 127.337 85.0925 127.411C84.9724 127.484 84.8775 127.59 84.808 127.728C84.7384 127.862 84.7034 128.026 84.7029 128.219L84.698 130.081L83.7638 130.078ZM89.6055 130.094C89.361 130.093 89.1466 130.056 88.9623 129.981C88.7825 129.902 88.6422 129.775 88.5411 129.6C88.4401 129.419 88.39 129.175 88.3908 128.866L88.3947 127.385L87.7996 127.383L87.8016 126.601L88.3967 126.603L88.503 125.655L89.3334 125.657L89.3309 126.605L90.2513 126.608L90.2492 127.39L89.3289 127.387L89.325 128.882C89.3246 129.039 89.3589 129.147 89.4279 129.208C89.497 129.268 89.6145 129.298 89.7806 129.298L90.2373 129.3L90.2352 130.095L89.6055 130.094ZM92.5872 130.185C92.2551 130.184 91.9554 130.107 91.6882 129.954C91.4257 129.796 91.2164 129.581 91.0602 129.309C90.9087 129.032 90.8334 128.715 90.8343 128.36C90.8353 127.996 90.9122 127.678 91.0652 127.406C91.2228 127.129 91.4355 126.915 91.7035 126.764C91.9715 126.608 92.2716 126.53 92.6037 126.531C92.9405 126.532 93.2401 126.611 93.5027 126.769C93.7699 126.922 93.9792 127.137 94.1307 127.414C94.2868 127.686 94.3644 128.003 94.3635 128.362C94.3626 128.722 94.2833 129.04 94.1257 129.317C93.9728 129.589 93.7623 129.802 93.4943 129.959C93.2264 130.11 92.924 130.186 92.5872 130.185ZM92.5893 129.375C92.7462 129.375 92.8847 129.339 93.0048 129.265C93.1296 129.192 93.2268 129.079 93.2964 128.927C93.3706 128.775 93.408 128.586 93.4086 128.36C93.4091 128.134 93.3727 127.947 93.2993 127.799C93.2305 127.647 93.1339 127.533 93.0096 127.459C92.8898 127.381 92.7538 127.341 92.6016 127.341C92.454 127.34 92.3178 127.379 92.193 127.457C92.0683 127.531 91.9688 127.643 91.8946 127.795C91.825 127.943 91.7899 128.13 91.7893 128.356C91.7887 128.582 91.8228 128.771 91.8916 128.923C91.965 129.076 92.0616 129.189 92.1814 129.263C92.3057 129.337 92.4417 129.375 92.5893 129.375ZM98.4809 130.2C98.1303 130.199 97.8191 130.12 97.5473 129.962C97.2756 129.805 97.0639 129.59 96.9124 129.317C96.7609 129.045 96.6856 128.733 96.6865 128.382C96.6874 128.023 96.7644 127.707 96.9173 127.435C97.0703 127.159 97.2831 126.942 97.5557 126.786C97.8283 126.625 98.1399 126.545 98.4905 126.546C98.938 126.548 99.3136 126.666 99.6175 126.902C99.9214 127.138 100.114 127.462 100.196 127.873L99.2067 127.87C99.1656 127.708 99.0783 127.581 98.9447 127.489C98.8158 127.396 98.6614 127.35 98.4815 127.349C98.32 127.349 98.1746 127.39 98.0452 127.472C97.9204 127.551 97.8209 127.668 97.7467 127.825C97.6771 127.977 97.642 128.159 97.6415 128.371C97.641 128.532 97.6614 128.678 97.7026 128.807C97.7438 128.932 97.8012 129.04 97.8748 129.133C97.9483 129.221 98.0358 129.288 98.1372 129.334C98.2432 129.381 98.3561 129.404 98.4761 129.404C98.596 129.405 98.7045 129.384 98.8015 129.343C98.9031 129.302 98.9886 129.244 99.058 129.171C99.1274 129.092 99.1761 128.998 99.204 128.887L100.194 128.89C100.109 129.291 99.9126 129.611 99.6029 129.85C99.2978 130.085 98.9238 130.201 98.4809 130.2ZM102.172 130.21C101.881 130.209 101.642 130.162 101.453 130.069C101.264 129.972 101.124 129.845 101.032 129.688C100.944 129.526 100.901 129.348 100.902 129.155C100.902 128.942 100.956 128.756 101.062 128.594C101.173 128.433 101.337 128.307 101.555 128.215C101.776 128.123 102.053 128.078 102.385 128.079L103.25 128.081C103.251 127.911 103.228 127.77 103.182 127.659C103.136 127.543 103.065 127.458 102.968 127.402C102.872 127.347 102.743 127.319 102.581 127.318C102.406 127.318 102.256 127.357 102.131 127.435C102.011 127.508 101.937 127.623 101.909 127.78L101.002 127.778C101.026 127.529 101.107 127.314 101.246 127.135C101.389 126.951 101.577 126.808 101.808 126.707C102.043 126.606 102.304 126.556 102.59 126.557C102.918 126.558 103.201 126.614 103.441 126.725C103.68 126.837 103.864 126.996 103.993 127.204C104.122 127.412 104.186 127.668 104.185 127.973L104.179 130.132L103.39 130.13L103.288 129.597C103.237 129.689 103.177 129.772 103.107 129.845C103.038 129.919 102.957 129.983 102.865 130.039C102.772 130.094 102.668 130.135 102.553 130.162C102.437 130.194 102.311 130.21 102.172 130.21ZM102.395 129.491C102.515 129.491 102.622 129.47 102.714 129.429C102.811 129.383 102.894 129.324 102.964 129.25C103.033 129.172 103.086 129.084 103.123 128.987C103.165 128.886 103.193 128.778 103.207 128.662L103.207 128.655L102.495 128.654C102.352 128.653 102.234 128.671 102.141 128.708C102.054 128.74 101.989 128.788 101.947 128.853C101.906 128.917 101.885 128.991 101.884 129.074C101.884 129.166 101.905 129.243 101.946 129.303C101.988 129.363 102.047 129.409 102.126 129.441C102.204 129.474 102.294 129.49 102.395 129.491ZM105.051 130.134L105.06 126.647L105.883 126.649L105.958 127.113C106.069 126.947 106.215 126.816 106.395 126.719C106.58 126.618 106.79 126.568 107.025 126.569C107.2 126.569 107.357 126.593 107.496 126.639C107.634 126.686 107.756 126.753 107.862 126.841C107.972 126.929 108.062 127.04 108.131 127.174C108.26 126.985 108.429 126.838 108.637 126.732C108.845 126.627 109.071 126.574 109.316 126.575C109.62 126.576 109.874 126.638 110.076 126.764C110.279 126.884 110.431 127.06 110.532 127.291C110.637 127.522 110.69 127.805 110.689 128.142L110.683 130.149L109.756 130.147L109.761 128.223C109.762 127.946 109.707 127.734 109.597 127.586C109.491 127.438 109.325 127.364 109.099 127.363C108.951 127.363 108.82 127.399 108.704 127.473C108.589 127.546 108.499 127.652 108.434 127.79C108.373 127.929 108.343 128.095 108.342 128.288L108.338 130.143L107.403 130.14L107.408 128.217C107.409 127.94 107.354 127.728 107.244 127.58C107.134 127.432 106.963 127.357 106.732 127.357C106.589 127.356 106.46 127.393 106.345 127.467C106.234 127.54 106.146 127.646 106.081 127.784C106.021 127.922 105.99 128.088 105.99 128.282L105.985 130.137L105.051 130.134ZM113.239 130.239C112.889 130.238 112.578 130.163 112.306 130.015C112.039 129.862 111.829 129.651 111.678 129.383C111.531 129.111 111.458 128.797 111.459 128.442C111.46 128.077 111.534 127.757 111.683 127.481C111.836 127.199 112.046 126.981 112.314 126.825C112.582 126.664 112.894 126.584 113.249 126.585C113.595 126.586 113.897 126.663 114.155 126.816C114.413 126.969 114.613 127.174 114.755 127.433C114.898 127.692 114.968 127.985 114.968 128.313C114.967 128.359 114.967 128.412 114.967 128.472C114.967 128.527 114.962 128.585 114.953 128.645L112.123 128.637L112.124 128.07L114.027 128.075C114.014 127.849 113.934 127.671 113.786 127.541C113.644 127.412 113.464 127.347 113.247 127.346C113.09 127.346 112.945 127.382 112.811 127.456C112.677 127.525 112.57 127.633 112.492 127.78C112.417 127.928 112.38 128.114 112.379 128.34L112.379 128.541C112.378 128.73 112.413 128.896 112.481 129.04C112.555 129.178 112.656 129.287 112.785 129.366C112.914 129.44 113.064 129.477 113.234 129.478C113.405 129.478 113.546 129.441 113.657 129.368C113.772 129.294 113.858 129.2 113.914 129.085L114.869 129.087C114.803 129.304 114.695 129.5 114.542 129.675C114.389 129.85 114.202 129.988 113.98 130.088C113.759 130.189 113.512 130.239 113.239 130.239ZM115.728 130.162L115.737 126.675L116.567 126.677L116.656 127.321C116.739 127.169 116.843 127.04 116.968 126.934C117.097 126.828 117.243 126.745 117.405 126.686C117.571 126.626 117.753 126.597 117.951 126.597L117.949 127.587L117.631 127.586C117.492 127.586 117.363 127.601 117.243 127.633C117.127 127.665 117.026 127.718 116.938 127.792C116.85 127.861 116.783 127.957 116.737 128.082C116.69 128.206 116.667 128.363 116.666 128.552L116.662 130.165L115.728 130.162ZM119.735 130.256C119.445 130.255 119.205 130.208 119.016 130.115C118.827 130.018 118.687 129.891 118.595 129.734C118.508 129.572 118.464 129.394 118.465 129.201C118.465 128.988 118.519 128.802 118.626 128.64C118.737 128.479 118.901 128.353 119.118 128.261C119.339 128.169 119.616 128.124 119.949 128.125L120.814 128.127C120.814 127.957 120.791 127.816 120.745 127.705C120.7 127.589 120.628 127.504 120.532 127.448C120.435 127.393 120.306 127.365 120.144 127.364C119.969 127.364 119.819 127.403 119.694 127.481C119.574 127.554 119.5 127.669 119.472 127.826L118.565 127.824C118.589 127.575 118.67 127.36 118.809 127.181C118.953 126.997 119.14 126.854 119.371 126.753C119.606 126.652 119.867 126.602 120.153 126.603C120.481 126.604 120.764 126.66 121.004 126.771C121.244 126.883 121.428 127.042 121.556 127.25C121.685 127.458 121.749 127.714 121.748 128.019L121.742 130.178L120.954 130.176L120.851 129.643C120.8 129.735 120.74 129.818 120.671 129.891C120.601 129.965 120.52 130.029 120.428 130.085C120.335 130.14 120.232 130.181 120.116 130.208C120.001 130.24 119.874 130.256 119.735 130.256ZM119.959 129.537C120.079 129.537 120.185 129.516 120.277 129.475C120.374 129.429 120.457 129.37 120.527 129.296C120.596 129.218 120.649 129.13 120.687 129.033C120.728 128.932 120.756 128.824 120.771 128.708L120.771 128.701L120.058 128.7C119.915 128.699 119.797 128.717 119.705 128.754C119.617 128.786 119.552 128.834 119.511 128.899C119.469 128.963 119.448 129.037 119.448 129.12C119.447 129.212 119.468 129.289 119.509 129.349C119.551 129.409 119.611 129.455 119.689 129.487C119.767 129.52 119.857 129.536 119.959 129.537ZM125.931 130.272C125.58 130.271 125.269 130.192 124.997 130.034C124.725 129.877 124.514 129.662 124.362 129.389C124.211 129.116 124.135 128.805 124.136 128.454C124.137 128.094 124.214 127.779 124.367 127.507C124.52 127.23 124.733 127.014 125.005 126.858C125.278 126.697 125.59 126.617 125.94 126.618C126.388 126.619 126.763 126.738 127.067 126.974C127.371 127.21 127.564 127.534 127.646 127.944L126.656 127.942C126.615 127.78 126.528 127.653 126.395 127.561C126.266 127.468 126.111 127.421 125.931 127.421C125.77 127.421 125.624 127.462 125.495 127.544C125.37 127.622 125.271 127.74 125.196 127.896C125.127 128.049 125.092 128.231 125.091 128.443C125.091 128.604 125.111 128.75 125.152 128.879C125.194 129.004 125.251 129.112 125.325 129.205C125.398 129.293 125.486 129.36 125.587 129.406C125.693 129.452 125.806 129.476 125.926 129.476C126.046 129.476 126.154 129.456 126.251 129.415C126.353 129.373 126.438 129.316 126.508 129.242C126.577 129.164 126.626 129.07 126.654 128.959L127.643 128.962C127.559 129.363 127.362 129.683 127.053 129.922C126.748 130.156 126.374 130.273 125.931 130.272ZM128.446 130.195L128.455 126.708L129.285 126.71L129.374 127.354C129.457 127.202 129.561 127.073 129.686 126.967C129.815 126.861 129.961 126.779 130.123 126.719C130.289 126.66 130.471 126.63 130.669 126.631L130.667 127.62L130.349 127.619C130.21 127.619 130.081 127.635 129.961 127.667C129.845 127.699 129.744 127.752 129.656 127.825C129.568 127.894 129.501 127.991 129.455 128.115C129.408 128.24 129.385 128.396 129.384 128.586L129.38 130.198L128.446 130.195ZM132.898 130.29C132.547 130.289 132.236 130.215 131.964 130.066C131.697 129.913 131.487 129.703 131.336 129.435C131.189 129.162 131.116 128.848 131.117 128.493C131.118 128.129 131.193 127.808 131.341 127.532C131.494 127.251 131.704 127.032 131.972 126.876C132.24 126.715 132.552 126.636 132.907 126.636C133.253 126.637 133.555 126.714 133.813 126.867C134.071 127.02 134.271 127.226 134.413 127.485C134.556 127.743 134.627 128.037 134.626 128.364C134.626 128.41 134.625 128.463 134.625 128.523C134.625 128.579 134.62 128.636 134.611 128.696L131.781 128.689L131.782 128.121L133.685 128.126C133.672 127.9 133.592 127.722 133.444 127.593C133.302 127.463 133.122 127.398 132.905 127.398C132.748 127.397 132.603 127.434 132.469 127.507C132.335 127.576 132.229 127.684 132.15 127.832C132.076 127.979 132.038 128.166 132.038 128.392L132.037 128.593C132.037 128.782 132.071 128.948 132.139 129.091C132.213 129.23 132.314 129.338 132.443 129.417C132.572 129.491 132.722 129.529 132.893 129.529C133.063 129.529 133.204 129.493 133.315 129.419C133.431 129.346 133.516 129.252 133.572 129.136L134.527 129.139C134.462 129.355 134.353 129.551 134.2 129.726C134.047 129.901 133.86 130.039 133.638 130.14C133.417 130.241 133.17 130.291 132.898 130.29ZM135.936 130.215L134.921 126.725L135.841 126.727L136.512 129.559L136.339 129.552L137.121 126.731L138.159 126.733L138.927 129.559L138.747 129.565L139.439 126.737L140.36 126.739L139.327 130.224L138.358 130.221L137.542 127.313L137.736 127.313L136.905 130.218L135.936 130.215Z" fill="#070257"/>
<defs>
<clipPath id="clip0_3513_1706">
<rect width="101.9" height="83.8209" fill="white" transform="translate(30.2677 29)"/>
</clipPath>
<clipPath id="clip1_3513_1706">
<rect width="15.3556" height="14.8532" fill="white" transform="translate(44.1788 79.1672)"/>
</clipPath>
<clipPath id="clip2_3513_1706">
<rect width="15.3556" height="14.826" fill="white" transform="translate(44.1788 46.062)"/>
</clipPath>
<clipPath id="clip3_3513_1706">
<rect width="15.3557" height="14.8259" fill="white" transform="translate(104.11 79.2015)"/>
</clipPath>
<clipPath id="clip4_3513_1706">
<rect width="15.3557" height="14.8259" fill="white" transform="translate(104.11 46.0548)"/>
</clipPath>
<clipPath id="clip5_3513_1706">
<rect width="15.4808" height="24.7692" fill="white" transform="matrix(1 0 0 -1 62.2613 85.7628)"/>
</clipPath>
<clipPath id="clip6_3513_1706">
<rect width="61.0719" height="77.9199" fill="white" transform="translate(71.5498 31.5802)"/>
</clipPath>
<clipPath id="clip7_3513_1706">
<rect width="6.22442" height="6.11575" fill="white" transform="translate(121.128 39.2329)"/>
</clipPath>
<clipPath id="clip8_3513_1706">
<rect width="6.16528" height="5.88977" fill="white" transform="translate(121.187 95.7577)"/>
</clipPath>
<clipPath id="clip9_3513_1706">
<rect width="6.0183" height="9.4561" fill="white" transform="translate(36.4402 38.3855)"/>
</clipPath>
<clipPath id="clip10_3513_1706">
<rect width="6.20224" height="5.3036" fill="white" transform="translate(36.3387 96.04)"/>
</clipPath>
<clipPath id="clip11_3513_1706">
<rect width="21.2615" height="20.6988" fill="white" transform="translate(70.5178 63.0577)"/>
</clipPath>
</defs>
</svg>
