<svg width="20" height="20" viewBox="0 0 20 20" fill="none" xmlns="http://www.w3.org/2000/svg">
<g clip-path="url(#clip0_887_2625)">
<mask id="mask0_887_2625" style="mask-type:luminance" maskUnits="userSpaceOnUse" x="0" y="0" width="20" height="20">
<path d="M0 1.90735e-06H20V20H0V1.90735e-06Z" fill="white"/>
</mask>
<g mask="url(#mask0_887_2625)">
<path d="M13.0757 7.56336C12.743 7.47117 12.3924 7.42188 12.0303 7.42188H4.68652C2.52914 7.42188 0.780273 9.17078 0.780273 11.3281V15.3125C0.780273 17.4699 2.52914 19.2188 4.68652 19.2188H8.71015" stroke="black" stroke-miterlimit="10" stroke-linecap="round" stroke-linejoin="round"/>
<path d="M11.5996 7.3833V4.00174C11.5996 2.22311 10.1577 0.781232 8.37912 0.781232C6.60044 0.781232 5.15857 2.22311 5.15857 4.00174V7.3833" stroke="black" stroke-miterlimit="10" stroke-linecap="round" stroke-linejoin="round"/>
<path d="M8.16406 13.3203C8.16406 13.8596 7.72684 14.2969 7.1875 14.2969C6.64816 14.2969 6.21094 13.8596 6.21094 13.3203C6.21094 12.781 6.64816 12.3438 7.1875 12.3438C7.72684 12.3438 8.16406 12.781 8.16406 13.3203Z" fill="black"/>
<path d="M5.03906 13.3203C5.03906 13.8596 4.60184 14.2969 4.0625 14.2969C3.52316 14.2969 3.08594 13.8596 3.08594 13.3203C3.08594 12.781 3.52316 12.3438 4.0625 12.3438C4.60184 12.3438 5.03906 12.781 5.03906 13.3203Z" fill="black"/>
<path d="M14.7266 19.2183C17.2075 19.2183 19.2187 17.2071 19.2187 14.7261C19.2187 12.2451 17.2075 10.2339 14.7266 10.2339C12.2456 10.2339 10.2344 12.2451 10.2344 14.7261C10.2344 17.2071 12.2456 19.2183 14.7266 19.2183Z" stroke="black" stroke-miterlimit="10" stroke-linecap="round" stroke-linejoin="round"/>
<path d="M16.3672 14.7261H13.0859" stroke="black" stroke-miterlimit="10" stroke-linecap="round" stroke-linejoin="round"/>
<path d="M14.7266 16.3667V13.0854" stroke="black" stroke-miterlimit="10" stroke-linecap="round" stroke-linejoin="round"/>
</g>
</g>
<defs>
<clipPath id="clip0_887_2625">
<rect width="20" height="20" fill="white"/>
</clipPath>
</defs>
</svg>
