<svg width="24" height="24" viewBox="0 0 24 24" fill="none" xmlns="http://www.w3.org/2000/svg">
<path d="M18.8828 17.8984H4.11719C4.11719 16.2578 5.75781 16.2578 5.75781 14.6172V10.7139C5.75781 7.61426 8.27051 5.10156 11.3701 5.10156C14.6132 5.10156 17.2422 7.73058 17.2422 10.9736V14.6172C17.2422 16.2578 18.8828 16.2578 18.8828 17.8984Z" stroke="black" stroke-width="2" stroke-miterlimit="10"/>
<path d="M13 3.5C13 4.32841 12.3284 5 11.5 5C10.6716 5 10 4.32841 10 3.5C10 2.67159 10.6716 2 11.5 2C12.3284 2 13 2.67159 13 3.5Z" stroke="black" stroke-width="2" stroke-miterlimit="10"/>
<path d="M13.9609 18.7188C13.9609 20.0779 12.8591 21.1797 11.5 21.1797C10.1409 21.1797 9.03906 20.0779 9.03906 18.7188" stroke="black" stroke-width="2" stroke-miterlimit="10"/>
</svg>
