<svg width="169" height="154" viewBox="0 0 169 154" fill="none" xmlns="http://www.w3.org/2000/svg">
<path d="M83.6872 154C123.294 154 155.401 121.893 155.401 82.2863C155.401 42.6799 123.294 10.5725 83.6872 10.5725C44.0808 10.5725 11.9734 42.6799 11.9734 82.2863C11.9734 121.893 44.0808 154 83.6872 154Z" fill="#F1F3FF"/>
<path d="M16.4683 38.3589C18.9507 38.3589 20.9632 36.3465 20.9632 33.864C20.9632 31.3816 18.9507 29.3691 16.4683 29.3691C13.9858 29.3691 11.9734 31.3816 11.9734 33.864C11.9734 36.3465 13.9858 38.3589 16.4683 38.3589Z" fill="#F1F3FF"/>
<path d="M132.722 24.4656C137.349 24.4656 141.099 20.7151 141.099 16.0887C141.099 11.4623 137.349 7.71191 132.722 7.71191C128.096 7.71191 124.345 11.4623 124.345 16.0887C124.345 20.7151 128.096 24.4656 132.722 24.4656Z" fill="#F1F3FF"/>
<path d="M17.8986 136.429C22.2993 136.429 25.8668 132.862 25.8668 128.461C25.8668 124.06 22.2993 120.493 17.8986 120.493C13.4979 120.493 9.93042 124.06 9.93042 128.461C9.93042 132.862 13.4979 136.429 17.8986 136.429Z" fill="#F1F3FF"/>
<path d="M160.509 128.665C164.91 128.665 168.477 125.098 168.477 120.697C168.477 116.296 164.91 112.729 160.509 112.729C156.108 112.729 152.541 116.296 152.541 120.697C152.541 125.098 156.108 128.665 160.509 128.665Z" fill="#F1F3FF"/>
<path d="M144.981 133.569C147.125 133.569 148.863 131.831 148.863 129.687C148.863 127.543 147.125 125.805 144.981 125.805C142.837 125.805 141.099 127.543 141.099 129.687C141.099 131.831 142.837 133.569 144.981 133.569Z" fill="#F1F3FF"/>
<path d="M95.6558 21.8248C95.4188 21.7742 95.4188 21.4362 95.6558 21.386L99.2378 20.6243C99.324 20.6059 99.3914 20.5385 99.4102 20.4523L100.181 16.8956C100.232 16.6598 100.569 16.6598 100.62 16.8956L101.391 20.4523C101.41 20.5385 101.477 20.6059 101.564 20.6243L105.146 21.386C105.383 21.4362 105.383 21.7742 105.146 21.8248L101.564 22.5865C101.477 22.6049 101.41 22.6719 101.391 22.7581L100.62 26.3148C100.569 26.5506 100.232 26.5506 100.181 26.3148L99.4102 22.7581C99.3914 22.6719 99.324 22.6049 99.2378 22.5865L95.6558 21.8248Z" fill="#C4CBF5"/>
<path d="M8.38694 85.1963C8.47848 84.764 9.09509 84.764 9.18662 85.1963L10.5522 91.6493C10.5858 91.8067 10.7079 91.9297 10.8653 91.964L17.2517 93.3553C17.6807 93.4489 17.6807 94.0606 17.2517 94.1538L10.8653 95.5452C10.7079 95.5795 10.5858 95.7025 10.5522 95.8598L9.18662 102.313C9.09509 102.745 8.47848 102.745 8.38694 102.313L7.02091 95.8598C6.98781 95.7025 6.86522 95.5795 6.70831 95.5452L0.321486 94.1538C-0.107162 94.0606 -0.107162 93.4489 0.321486 93.3553L6.70831 91.964C6.86522 91.9297 6.98781 91.8067 7.02091 91.6493L8.38694 85.1963Z" fill="#C4CBF5"/>
<path d="M39.1295 0.180204C39.1801 -0.060068 39.5226 -0.060068 39.5732 0.180204L40.3325 3.76508C40.3508 3.85253 40.4187 3.92077 40.5061 3.93997L44.0538 4.71268C44.292 4.76458 44.292 5.10456 44.0538 5.15645L40.5061 5.92916C40.4187 5.94836 40.3508 6.01661 40.3325 6.10405L39.5732 9.68893C39.5226 9.9292 39.1801 9.9292 39.1295 9.68893L38.3702 6.10405C38.3519 6.01661 38.284 5.94836 38.1966 5.92916L34.6489 5.15645C34.4107 5.10456 34.4107 4.76458 34.6489 4.71268L38.1966 3.93997C38.284 3.92077 38.3519 3.85253 38.3702 3.76508L39.1295 0.180204Z" fill="#C4CBF5"/>
<path d="M147.778 35.7527C147.869 35.3204 148.486 35.3204 148.577 35.7527L149.374 39.5174C149.408 39.6747 149.53 39.7977 149.687 39.832L153.424 40.646C153.852 40.7392 153.852 41.3509 153.424 41.4445L149.687 42.2584C149.53 42.2928 149.408 42.4158 149.374 42.5731L148.577 46.3378C148.486 46.7697 147.869 46.7697 147.778 46.3378L146.981 42.5731C146.948 42.4158 146.826 42.2928 146.668 42.2584L142.932 41.4445C142.503 41.3509 142.503 40.7392 142.932 40.646L146.668 39.832C146.826 39.7977 146.948 39.6747 146.981 39.5174L147.778 35.7527Z" fill="#C4CBF5"/>
<path d="M75.9952 12.1757C77.2983 16.9832 74.2585 22.064 69.0967 23.4632C63.9346 24.8623 58.7454 22.0117 57.4423 17.2043C56.1392 12.3964 59.179 7.31592 64.3408 5.91679C69.5025 4.51765 74.6921 7.36782 75.9952 12.1757Z" fill="#C4CBF5" stroke="#C4CBF5" stroke-width="4"/>
<path d="M63.5755 14.735L66.6308 13.4989L72.3291 11.9543C76.663 10.7799 81.211 10.6332 85.6115 11.526C87.2464 11.8574 88.8494 12.3306 90.4026 12.9391L96.1736 15.2012L99.6171 17.0584C102.228 18.4661 104.661 20.1811 106.865 22.1662C109.401 24.4496 111.61 27.071 113.432 29.9563L116.727 35.174L123.201 49.1041L127.668 58.9475L134.731 70.6264L140.201 79.7498L144.384 85.7513C145.663 87.5864 147.576 88.883 149.755 89.3901C151.397 89.7725 152.899 90.6065 154.093 91.7973L156.159 93.8588C156.44 94.1395 156.694 94.4464 156.918 94.7749C158.242 96.7192 158.377 99.238 157.267 101.312L157.127 101.574C156.39 102.952 155.202 104.034 153.762 104.64L144.012 108.742L129.232 113.943L103.193 121.644L88.3472 125.668L67.5094 130.672L48.9144 134.517L38.5885 135.909C36.8073 136.15 35.0179 135.525 33.7724 134.229C32.6438 133.055 32.0786 131.449 32.2225 129.827L32.3908 127.928C32.5637 125.983 33.5272 124.192 35.0567 122.977C36.5609 121.781 37.5191 120.028 37.7136 118.116L38.6555 108.852V96.6669L37.1109 79.9067L36.2904 68.0296L35.8617 62.9532C35.6055 59.9167 35.5969 56.8647 35.836 53.8274L35.9479 52.4074C36.2176 48.9803 36.8882 45.5964 37.9457 42.325C38.8933 39.3939 40.1461 36.5707 41.683 33.9016L42.1276 33.1293C43.6154 30.5459 45.3761 28.1301 47.3805 25.9235C49.4432 23.652 51.7511 21.6158 54.2621 19.8522L54.5764 19.6315C57.3799 17.6624 60.3993 16.0197 63.5755 14.735Z" fill="#DDE2FF" stroke="#C4CBF5" stroke-width="5.1041"/>
<path d="M63.5718 14.7216L66.6271 13.4859L72.3254 11.9413C76.6593 10.7669 81.2073 10.6198 85.6078 11.5127C87.2427 11.8445 88.8457 12.3173 90.3989 12.9261L96.17 15.1883L99.6134 17.0451C102.224 18.4532 104.658 20.1678 106.862 22.1529C109.397 24.4367 111.607 27.058 113.429 29.9433L116.723 35.1611L123.197 49.0911L127.664 58.9345L134.727 70.6135L140.198 79.7364L143.915 84.8226C145.554 87.0659 147.964 88.6261 150.682 89.2043L150.93 89.257C152.668 89.6264 154.281 90.4383 155.613 91.6135L156.393 92.3017C157.448 93.2329 158.197 94.4621 158.541 95.8269C158.885 97.1933 158.806 98.6321 158.316 99.9532L158.282 100.045C158.103 100.527 157.874 100.988 157.598 101.421L157.457 101.644C156.544 103.079 155.272 104.252 153.767 105.044L151.215 106.388L146.367 108.942L132.772 115.072L123.578 118.749L115.61 121.814L108.868 124.061L101.921 126.513L95.9959 128.148L91.9096 129.169L80.8767 131.417L70.4568 133.46L50.8427 136.278L44.847 136.942C43.6718 137.072 42.4859 137.068 41.312 136.93L38.2885 136.576C36.6475 136.383 35.125 135.627 33.98 134.436C32.7047 133.109 31.9924 131.339 31.9924 129.499V128.854C31.9924 128.384 32.0304 127.915 32.106 127.451L32.1489 127.187C32.4824 125.138 33.3405 123.211 34.6395 121.591L35.5111 120.505C38.177 117.183 39.525 112.994 39.2978 108.741L38.6518 96.6535L37.1072 79.8938L36.2867 68.0166L35.858 62.9399C35.6018 59.9038 35.5932 56.8517 35.8323 53.814L35.9442 52.3945C36.2139 48.9669 36.8845 45.5831 37.9424 42.312C38.8896 39.381 40.1425 36.5578 41.6797 33.8882L42.1239 33.1163C43.6117 30.533 45.3725 28.1172 47.3768 25.9106C49.4395 23.6391 51.7478 21.6029 54.2584 19.8393L54.5727 19.6186C57.3763 17.6494 60.3956 16.0063 63.5718 14.7216Z" fill="url(#paint0_linear_203_599)" stroke="#C4CBF5"/>
<path d="M148.075 99.82C148.232 100.387 148.065 101.062 147.534 101.849C147.004 102.634 146.129 103.501 144.932 104.434C142.539 106.298 138.896 108.393 134.27 110.588C125.021 114.975 111.878 119.743 97.0337 123.848C82.1896 127.953 68.4643 130.617 58.2756 131.605C53.1796 132.099 48.9781 132.174 45.967 131.804C44.4604 131.619 43.2643 131.324 42.4062 130.923C41.5464 130.521 41.0569 130.028 40.9 129.46C40.7431 128.893 40.9098 128.218 41.4406 127.432C41.9706 126.647 42.8455 125.779 44.0427 124.846C46.4361 122.982 50.0785 120.887 54.7042 118.692C63.953 114.305 77.0965 109.537 91.9406 105.432C106.785 101.327 120.511 98.6636 130.699 97.6751C135.795 97.1807 139.997 97.1063 143.008 97.4761C144.514 97.6612 145.71 97.9562 146.568 98.3571C147.428 98.7592 147.918 99.2524 148.075 99.82Z" fill="#C4CBF5" stroke="#C4CBF5"/>
<path d="M85.3651 117.67L84.7583 117.022C84.1114 116.331 83.559 115.557 83.1156 114.72C82.8128 114.148 82.5623 113.55 82.3674 112.933L81.3152 109.602L83.7833 108.725L86.2583 107.806L92.3456 106.165L99.202 104.341L103.235 103.464L103.41 104.06C103.994 106.057 104.264 108.133 104.213 110.214L104.07 111.704C103.902 113.466 103.304 115.16 102.328 116.636L102.276 116.715C101.877 117.318 101.414 117.875 100.894 118.378C99.4418 119.782 97.5952 120.711 95.6016 121.04L94.873 121.16C94.2527 121.262 93.6238 121.306 92.9949 121.29C90.9334 121.239 88.9377 120.552 87.2815 119.323L86.908 119.047C86.3535 118.635 85.837 118.175 85.3651 117.67Z" fill="#DDE2FF" stroke="#C4CBF5" stroke-width="4"/>
<defs>
<linearGradient id="paint0_linear_203_599" x1="68.1461" y1="13.0741" x2="99.1069" y2="127.304" gradientUnits="userSpaceOnUse">
<stop stop-color="#DDE2FF"/>
<stop offset="1" stop-color="white"/>
</linearGradient>
</defs>
</svg>
