<svg width="24" height="24" viewBox="0 0 24 24" fill="none" xmlns="http://www.w3.org/2000/svg">
<path d="M12.2594 13.7356C11.1978 13.7356 10.16 13.4208 9.27726 12.831C8.39453 12.2411 7.70653 11.4028 7.30025 10.422C6.89398 9.44112 6.78768 8.36184 6.99479 7.32059C7.20191 6.27934 7.71315 5.32289 8.46384 4.57219C9.21454 3.82149 10.171 3.31026 11.2122 3.10314C12.2535 2.89603 13.3328 3.00233 14.3136 3.4086C15.2945 3.81488 16.1328 4.50288 16.7226 5.38561C17.3124 6.26834 17.6272 7.30615 17.6272 8.3678C17.6257 9.79096 17.0597 11.1554 16.0534 12.1617C15.0471 13.1681 13.6826 13.7341 12.2594 13.7356ZM12.2594 5.14712C11.6225 5.14712 10.9998 5.33601 10.4701 5.6899C9.9405 6.04379 9.5277 6.5468 9.28393 7.1353C9.04017 7.7238 8.97639 8.37137 9.10066 8.99612C9.22493 9.62087 9.53167 10.1947 9.98209 10.6452C10.4325 11.0956 11.0064 11.4023 11.6311 11.5266C12.2559 11.6509 12.9034 11.5871 13.4919 11.3433C14.0804 11.0995 14.5835 10.6867 14.9373 10.1571C15.2912 9.62747 15.4801 9.00479 15.4801 8.3678C15.4794 7.51385 15.1398 6.6951 14.536 6.09127C13.9321 5.48744 13.1134 5.14788 12.2594 5.14712Z" fill="black"/>
<path d="M5.0749 21C5.03087 20.9999 4.98688 20.9971 4.94321 20.9914C4.80326 20.9742 4.66806 20.9296 4.54534 20.8602C4.42261 20.7908 4.31477 20.6978 4.22797 20.5867C4.14118 20.4756 4.07712 20.3484 4.03946 20.2126C4.0018 20.0767 3.99128 19.9347 4.0085 19.7948C4.19097 18.3211 4.90539 16.9648 6.01747 15.9809C7.12955 14.9969 8.56273 14.4529 10.0476 14.4513H14.4707C15.9557 14.4526 17.389 14.9965 18.5012 15.9805C19.6133 16.9645 20.3276 18.321 20.5098 19.7948C20.5446 20.0774 20.4656 20.3623 20.2903 20.5867C20.115 20.8111 19.8577 20.9567 19.5751 20.9914C19.2925 21.0262 19.0076 20.9472 18.7832 20.7719C18.5588 20.5966 18.4132 20.3393 18.3784 20.0567C18.2605 19.103 17.7983 18.2253 17.0787 17.5884C16.3591 16.9516 15.4316 16.5995 14.4707 16.5984H10.0476C9.08669 16.5995 8.15925 16.9516 7.43964 17.5884C6.72003 18.2253 6.25781 19.103 6.13987 20.0567C6.10778 20.3167 5.98186 20.556 5.78575 20.7297C5.58965 20.9034 5.33687 20.9995 5.0749 21Z" fill="black"/>
</svg>
