<svg width="20" height="20" viewBox="0 0 20 20" fill="none" xmlns="http://www.w3.org/2000/svg">
<path d="M15.7606 3.95973V0.585938H1.80371V19.4141H12.4105L15.7606 16.0621V10.1385" stroke="black" stroke-miterlimit="10"/>
<path d="M12.4037 16.0571H15.7606V16.5003L12.8468 19.4141H12.4037V16.0571Z" stroke="black" stroke-miterlimit="10"/>
<path d="M4.49768 13.6523H13.0667" stroke="black" stroke-miterlimit="10"/>
<path d="M4.49768 11.25H7.53799" stroke="black" stroke-miterlimit="10"/>
<path d="M4.49768 3.03394H11.4271" stroke="black" stroke-miterlimit="10"/>
<path d="M4.49768 16.0547H8.78217" stroke="black" stroke-miterlimit="10"/>
<path d="M15.0683 3.88281C13.9151 3.88281 12.9083 4.50746 12.3659 5.43641H7.06995L5.74182 7.0107L7.06995 8.585H7.77577L8.69592 9.19266L9.61917 8.66313L10.5294 9.19266L11.4496 8.585H12.3659C12.9083 9.51395 13.9151 10.1386 15.0684 10.1386C16.7959 10.1386 18.1963 8.73816 18.1963 7.0107C18.1963 5.28324 16.7958 3.88281 15.0683 3.88281Z" stroke="black" stroke-miterlimit="10"/>
<path d="M15.0732 7.59644V6.42456" stroke="black" stroke-miterlimit="10"/>
</svg>
