<svg width="20" height="20" viewBox="0 0 20 20" fill="none" xmlns="http://www.w3.org/2000/svg">
<path d="M12.6341 0.585938H7.36621V2.92969H12.6341V0.585938Z" stroke="black" stroke-miterlimit="10"/>
<path d="M10 19.4141C13.9048 19.4141 17.0703 16.2486 17.0703 12.3438C17.0703 8.43892 13.9048 5.27344 10 5.27344C6.09517 5.27344 2.92969 8.43892 2.92969 12.3438C2.92969 16.2486 6.09517 19.4141 10 19.4141Z" stroke="black" stroke-miterlimit="10"/>
<path d="M10 17.0703C12.6104 17.0703 14.7266 14.9542 14.7266 12.3438C14.7266 9.73334 12.6104 7.61719 10 7.61719C7.38959 7.61719 5.27344 9.73334 5.27344 12.3438C5.27344 14.9542 7.38959 17.0703 10 17.0703Z" stroke="black" stroke-miterlimit="10"/>
<path d="M8.82812 2.92969V5.27344" stroke="black" stroke-miterlimit="10"/>
<path d="M11.1719 2.92969V5.27344" stroke="black" stroke-miterlimit="10"/>
<path d="M14.999 7.34432L16.6563 5.68701" stroke="black" stroke-miterlimit="10"/>
<path d="M17.4854 6.51566L15.8281 4.8584" stroke="black" stroke-miterlimit="10"/>
<path d="M5.00106 7.34432L3.34375 5.68701" stroke="black" stroke-miterlimit="10"/>
<path d="M4.17191 4.8584L2.51465 6.51566" stroke="black" stroke-miterlimit="10"/>
<path d="M8.34277 11.8489L10 10.1917L11.6573 11.8489" stroke="black" stroke-miterlimit="10"/>
<path d="M10 10.1917V15.3125" stroke="black" stroke-miterlimit="10"/>
</svg>
