<svg width="20" height="20" viewBox="0 0 20 20" fill="none" xmlns="http://www.w3.org/2000/svg">
<g clip-path="url(#clip0_641_1298)">
<path d="M17.1875 2.1875L17.5 4.375L15.3125 4.0625L17.1875 2.1875Z" stroke="black" stroke-miterlimit="10" stroke-linecap="round" stroke-linejoin="round"/>
<path d="M2.8125 17.8125L2.5 15.625L4.6875 15.9375L2.8125 17.8125Z" stroke="black" stroke-miterlimit="10" stroke-linecap="round" stroke-linejoin="round"/>
<path d="M17.2857 4.03777C15.5593 1.93059 12.9366 0.585938 10 0.585938C4.80074 0.585938 0.585938 4.80074 0.585938 10" stroke="black" stroke-miterlimit="10" stroke-linecap="round" stroke-linejoin="round"/>
<path d="M2.71387 15.9622C4.44031 18.0694 7.06293 19.4141 9.99957 19.4141C15.1988 19.4141 19.4136 15.1993 19.4136 10" stroke="black" stroke-miterlimit="10" stroke-linecap="round" stroke-linejoin="round"/>
<path d="M13.5156 14.0625H6.48438C5.83715 14.0625 5.3125 13.5379 5.3125 12.8906V7.73438C5.3125 7.08715 5.83715 6.5625 6.48438 6.5625H13.5156C14.1629 6.5625 14.6875 7.08715 14.6875 7.73438V12.8906C14.6875 13.5379 14.1629 14.0625 13.5156 14.0625Z" stroke="black" stroke-miterlimit="10" stroke-linecap="round" stroke-linejoin="round"/>
<path d="M10 11.875C10.8629 11.875 11.5625 11.1754 11.5625 10.3125C11.5625 9.44956 10.8629 8.75 10 8.75C9.13706 8.75 8.4375 9.44956 8.4375 10.3125C8.4375 11.1754 9.13706 11.875 10 11.875Z" stroke="black" stroke-miterlimit="10" stroke-linecap="round" stroke-linejoin="round"/>
<path d="M12.1875 6.5625H7.8125L8.75 4.375H11.25L12.1875 6.5625Z" stroke="black" stroke-miterlimit="10" stroke-linecap="round" stroke-linejoin="round"/>
</g>
<defs>
<clipPath id="clip0_641_1298">
<rect width="20" height="20" fill="white"/>
</clipPath>
</defs>
</svg>
