<svg width="19" height="19" viewBox="0 0 19 19" fill="none" xmlns="http://www.w3.org/2000/svg">
<g opacity="0.9" clip-path="url(#clip0_1045_1700)">
<mask id="mask0_1045_1700" style="mask-type:luminance" maskUnits="userSpaceOnUse" x="0" y="0" width="19" height="19">
<path d="M0 1.90735e-06H19V19H0V1.90735e-06Z" fill="white"/>
</mask>
<g mask="url(#mask0_1045_1700)">
<path d="M8.16406 6.53125C8.16406 7.76094 7.16723 8.75781 5.9375 8.75781C4.70781 8.75781 3.71094 7.76094 3.71094 6.53125C3.71094 5.30156 4.70781 4.30469 5.9375 4.30469C7.16723 4.30469 8.16406 5.30156 8.16406 6.53125Z" stroke="black" stroke-width="1.5" stroke-miterlimit="10" stroke-linecap="round" stroke-linejoin="round"/>
<path d="M5.93754 11.7266C3.06824 11.7266 0.742188 14.0526 0.742188 16.9219V17.6641H11.1328V16.9219C11.1328 14.0526 8.8068 11.7266 5.93754 11.7266Z" stroke="black" stroke-width="1.5" stroke-miterlimit="10" stroke-linecap="round" stroke-linejoin="round"/>
<path d="M15.2891 3.5625C15.2891 4.79219 14.2922 5.78906 13.0625 5.78906C11.8328 5.78906 10.8359 4.79219 10.8359 3.5625C10.8359 2.33281 11.8328 1.33594 13.0625 1.33594C14.2922 1.33594 15.2891 2.33281 15.2891 3.5625Z" stroke="black" stroke-width="1.5" stroke-miterlimit="10" stroke-linecap="round" stroke-linejoin="round"/>
<path d="M13.4962 14.6953H18.2578V13.9531C18.2578 11.0838 15.9318 8.75781 13.0625 8.75781C11.8303 8.75781 10.6984 9.18676 9.80774 9.90349" stroke="black" stroke-width="1.5" stroke-miterlimit="10" stroke-linecap="round" stroke-linejoin="round"/>
</g>
</g>
<defs>
<clipPath id="clip0_1045_1700">
<rect width="19" height="19" fill="white"/>
</clipPath>
</defs>
</svg>
