<svg width="20" height="20" viewBox="0 0 20 20" fill="none" xmlns="http://www.w3.org/2000/svg">
<g clip-path="url(#clip0_683_1555)">
<path d="M13.1298 8.79032H6.86914V0.585938H10.6653L13.1298 3.05052V8.79032Z" stroke="black" stroke-miterlimit="10"/>
<path d="M10 0.585938V3.71627H13.1304" stroke="black" stroke-miterlimit="10"/>
<path d="M7.64293 19.4142H1.36719V18.6497C1.36719 17.4886 2.30842 16.5474 3.46949 16.5474H5.54058C6.70165 16.5474 7.64289 17.4886 7.64289 18.6497V19.4142H7.64293Z" stroke="black" stroke-miterlimit="10"/>
<path d="M18.6322 19.4142H12.3564V18.6497C12.3564 17.4886 13.2977 16.5474 14.4587 16.5474H16.5298C17.6909 16.5474 18.6321 17.4886 18.6321 18.6497V19.4142H18.6322Z" stroke="black" stroke-miterlimit="10"/>
<path d="M4.50498 16.5473C3.52601 16.5473 2.73242 15.7537 2.73242 14.7747V13.2755C2.73242 12.389 3.45105 11.6704 4.33753 11.6704H4.67247C5.55894 11.6704 6.27757 12.389 6.27757 13.2755V14.7747C6.27753 15.7537 5.48395 16.5473 4.50498 16.5473Z" stroke="black" stroke-miterlimit="10"/>
<path d="M2.73242 13.6509H6.27753" stroke="black" stroke-miterlimit="10"/>
<path d="M15.4942 16.5473C14.5153 16.5473 13.7217 15.7537 13.7217 14.7747V13.2755C13.7217 12.389 14.4403 11.6704 15.3268 11.6704H15.6617C16.5482 11.6704 17.2668 12.389 17.2668 13.2755V14.7747C17.2668 15.7537 16.4732 16.5473 15.4942 16.5473Z" stroke="black" stroke-miterlimit="10"/>
<path d="M13.7217 13.6509H17.2668" stroke="black" stroke-miterlimit="10"/>
<path d="M8.05273 13.6508H8.41576C9.29395 13.6508 10.0059 12.9389 10.0059 12.0607M10.0059 12.0607V10.7825M10.0059 12.0607C10.0059 12.9389 10.7178 13.6508 11.596 13.6508H11.959" stroke="black" stroke-miterlimit="10"/>
</g>
<defs>
<clipPath id="clip0_683_1555">
<rect width="20" height="20" fill="white"/>
</clipPath>
</defs>
</svg>
